<svg width="0" height="0" style="position:absolute"><symbol id="node_modules--psl--browserstack-logo" viewBox="0 0 490.1 105.6" style="enable-background:new 0 0 490.1 105.6" xml:space="preserve" xmlns="http://www.w3.org/2000/svg"><style>.vst11{fill:#000111}</style><circle cx="52.8" cy="52.8" r="52.8" style="fill:#f4b960"/><circle cx="47.5" cy="47.5" r="47.5" style="fill:#e66f32"/><circle cx="53.8" cy="41.1" r="41.1" style="fill:#e43c41"/><circle cx="57.1" cy="44.4" r="37.8" style="fill:#bdd041"/><circle cx="54.3" cy="47.2" r="35.1" style="fill:#6db54c"/><circle cx="48.8" cy="41.7" r="29.5" style="fill:#aedae6"/><circle cx="53.6" cy="36.8" r="24.7" style="fill:#56b8de"/><circle cx="56.6" cy="39.9" r="21.7" style="fill:#00b1d5"/><radialGradient id="vSVGID_1_" cx="53.45" cy="63.02" r="18.57" gradientTransform="matrix(1 0 0 -1 0 106)" gradientUnits="userSpaceOnUse"><stop offset="0" style="stop-color:#797979"/><stop offset="1" style="stop-color:#4c4c4c"/></radialGradient><circle cx="53.5" cy="43" r="18.6" style="fill:url(#vSVGID_1_)"/><circle cx="53.5" cy="43" r="18.6" style="fill:#221f1f"/><ellipse transform="rotate(-65.832 60.867 36.231)" cx="60.9" cy="36.2" rx="5.7" ry="3.7" style="fill:#fff"/><path class="vst11" d="M122.5 32.6c0-.3.3-.6.6-.6H139.8c9.5 0 13.9 4.4 13.9 11 .2 3.7-1.8 7.2-5.2 8.8v.1c3.7 1.5 6.1 5.2 6 9.3 0 8.2-5.6 12.2-15.4 12.2h-16c-.3 0-.6-.2-.7-.5v-.1l.1-40.2zm17.1 16.5c3.9 0 6.4-2.2 6.4-5.4s-2.4-5.5-6.4-5.5h-8.9c-.2 0-.4.1-.4.3V48.8c0 .2.1.3.3.4h9v-.1zm-9 17.8h9.3c4.3 0 6.8-2.3 6.8-5.8s-2.4-5.7-6.7-5.7h-9.3c-.2 0-.4.1-.4.3V66.5c0 .3.1.4.3.4zM159.9 73.3c-.3 0-.6-.2-.7-.5V44.6c0-.3.3-.6.6-.6h6.1c.3 0 .6.2.7.5v2.6h.1c1.5-2.2 4.2-3.8 8.2-3.8 2.4 0 4.8.8 6.6 2.4.3.3.4.5.1.8l-3.5 4.1c-.2.3-.6.4-.9.2h-.1c-1.4-.9-3-1.4-4.7-1.4-4.1 0-6 2.7-6 7.4v15.9c0 .3-.3.6-.6.6H159.9zM182.9 65.8c-.8-2.3-1.1-4.8-1.1-7.2-.1-2.5.3-4.9 1.1-7.2 1.8-5.1 6.6-8.1 13.1-8.1s11.2 3 13 8.1c.8 2.3 1.1 4.8 1.1 7.2.1 2.5-.3 4.9-1.1 7.2-1.8 5.1-6.6 8.1-13 8.1s-11.3-2.9-13.1-8.1zm19-1.8c.5-1.7.8-3.6.7-5.4.1-1.8-.1-3.7-.7-5.4-.9-2.5-3.3-4-5.9-3.8-2.6-.2-5.1 1.4-6 3.8-.5 1.8-.8 3.6-.7 5.4-.1 1.8.1 3.7.7 5.4.9 2.5 3.4 4 6 3.8 2.6.2 5-1.3 5.9-3.8zM241.9 73.3c-.4 0-.7-.3-.8-.6L235 53.9h-.1l-6.2 18.7c-.1.4-.4.6-.8.6h-5.4c-.4 0-.7-.3-.8-.6l-10-28.1c-.1-.2 0-.5.2-.6.1 0 .2-.1.3 0h6.3c.4 0 .8.2.9.6l6.1 19.3h.1l6-19.3c.1-.4.5-.6.9-.6h4.7c.4 0 .7.2.9.6l6.4 19.3h.1l5.8-19.3c.1-.4.5-.7.9-.6h6.3c.2-.1.5.1.5.3v.3l-10 28.1c-.1.4-.4.6-.8.6l-5.4.1zM259.3 69.3c-.2-.2-.3-.6-.1-.8l.1-.1 3.7-3.6c.3-.2.7-.2.9 0 2.6 2.1 5.9 3.3 9.3 3.3 3.9 0 5.9-1.5 5.9-3.5 0-1.8-1.1-2.9-5.2-3.2l-3.4-.3c-6.4-.6-9.7-3.6-9.7-8.6 0-5.7 4.4-9.2 12.3-9.2 4.2-.1 8.4 1.2 11.9 3.6.3.2.3.5.2.8v.1l-3.2 3.6c-.2.3-.6.3-.9.1-2.5-1.5-5.4-2.4-8.3-2.4-3.1 0-4.8 1.3-4.8 3s1.1 2.7 5.2 3.1l3.4.3c6.6.6 9.8 3.8 9.8 8.6 0 5.8-4.6 9.9-13.3 9.9-5.1 0-9.9-1.6-13.8-4.7zM291.2 65.8c-.8-2.3-1.2-4.7-1.1-7.2-.1-2.5.3-4.9 1-7.2 1.8-5.1 6.6-8.1 12.9-8.1 6.5 0 11.2 3.1 13 8.1.7 2.1 1 4.1 1 8.8 0 .3-.3.6-.6.6h-19.6c-.2 0-.4.1-.4.3v.1c0 .8.2 1.5.5 2.2 1 2.9 3.5 4.4 7.1 4.4 2.7.1 5.4-.9 7.4-2.8.2-.3.7-.4 1-.1l3.9 3.2c.2.1.3.5.2.7 0 .1-.1.1-.1.1-2.7 2.9-7.2 5-13 5-6.6 0-11.4-3-13.2-8.1zm19.2-13c-.9-2.4-3.2-3.8-6.2-3.8s-5.4 1.4-6.2 3.8c-.3.8-.4 1.6-.4 2.5 0 .2.1.3.3.4h12.5c.2 0 .4-.1.4-.3v-.1c0-.8-.2-1.7-.4-2.5zM323.6 73.3c-.3 0-.6-.2-.7-.5V44.6c0-.3.3-.6.6-.6h6.1c.3 0 .6.2.7.5v2.6h.1c1.5-2.2 4.2-3.8 8.2-3.8 2.4 0 4.8.8 6.6 2.4.3.3.4.5.1.8l-3.5 4.1c-.2.3-.6.4-.9.2h-.1c-1.4-.9-3-1.4-4.7-1.4-4.1 0-6 2.7-6 7.4v15.9c0 .3-.3.6-.6.6H323.6zM346.5 68.5c-.3-.2-.4-.6-.2-.9l4.1-4.4c.2-.3.6-.3.9-.1 3.5 2.7 7.7 4.2 12.1 4.4 5.3 0 8.4-2.5 8.4-6 0-3-2-4.9-8.1-5.7l-2.4-.3c-8.6-1.1-13.5-4.9-13.5-11.8 0-7.5 5.9-12.4 15.1-12.4 5.1-.1 10.1 1.4 14.5 4.2.3.1.4.4.2.7 0 .1-.1.1-.1.2l-3.1 4.5c-.2.3-.6.4-.9.2-3.2-2.1-6.9-3.2-10.7-3.2-4.5 0-7 2.3-7 5.5 0 2.9 2.2 4.8 8.2 5.6l2.4.3c8.6 1.1 13.3 4.9 13.3 12 0 7.3-5.7 12.8-16.8 12.8-6.6-.2-12.9-2.6-16.4-5.6zM393.3 73.8c-6.4 0-8.8-2.9-8.8-8.6V49.8c0-.2-.1-.3-.3-.4H382c-.3 0-.6-.2-.7-.5V44.7c0-.3.3-.6.6-.6h2.2c.2 0 .4-.1.4-.3v-8.1c0-.3.3-.6.6-.6h6.1c.3 0 .6.2.7.5v8.1c0 .2.1.3.3.4h4.3c.3 0 .6.2.7.5V48.8c0 .3-.3.6-.6.6h-4.3c-.2 0-.4.1-.4.3V65c0 2.1.9 2.7 3 2.7h1.6c.3 0 .6.2.7.5v5c0 .3-.3.6-.6.6H393.3zM421.2 73.3c-.3 0-.6-.2-.7-.5v-2.2c-1.5 2-4.5 3.4-8.9 3.4-5.8 0-10.6-2.8-10.6-8.9 0-6.4 4.9-9.3 12.7-9.3h6.4c.2 0 .4-.1.4-.3V54c0-3.3-1.7-4.9-7-4.9-2.6-.1-5.1.6-7.2 2-.3.2-.7.2-.9-.1v-.1l-2.4-4c-.2-.2-.1-.6.1-.8 2.6-1.7 6-2.9 11.2-2.9 9.6 0 13.2 3 13.2 10.2v19.1c0 .3-.3.6-.6.6H421.2v.2zm-.8-9.9v-2.2c0-.2-.1-.3-.3-.4h-5.3c-4.7 0-6.8 1.2-6.8 3.9 0 2.4 1.9 3.6 5.5 3.6 4.4.1 6.9-1.5 6.9-4.9zM433.1 65.8c-.7-2.3-1.1-4.8-1-7.2-.1-2.4.3-4.9 1-7.2 1.8-5.2 6.7-8.1 13.1-8.1 4.2-.2 8.2 1.5 11 4.6.2.2.2.6 0 .8l-.1.1-4.1 3.3c-.3.2-.7.2-.9-.1v-.1c-1.5-1.7-3.6-2.6-5.9-2.5-2.8 0-5 1.3-5.9 3.8-.5 1.8-.8 3.6-.7 5.4-.1 1.8.1 3.7.7 5.5.9 2.5 3.1 3.8 5.9 3.8 2.2.1 4.4-.9 5.9-2.6.2-.3.6-.3.9-.1l4.1 3.3c.3.2.3.5.1.8l-.1.1c-2.9 3-6.9 4.6-11 4.5-6.3 0-11.1-2.8-13-8.1zM482.8 73.3c-.4 0-.8-.2-1-.6l-8-12.3-4.3 4.6v7.7c0 .3-.3.6-.6.6h-6.1c-.3 0-.6-.2-.7-.5V32.6c0-.3.3-.6.6-.6h6.1c.3 0 .6.2.7.5V56.4l10.8-11.8c.3-.4.8-.6 1.2-.6h6.7c.2 0 .4.1.4.3 0 .1 0 .3-.1.3l-10.1 10.7L490 72.7c.1.2.1.4 0 .5-.1.1-.2.1-.3.1h-6.9z"/></symbol><symbol viewBox="0 0 973 356" id="node_modules--react-scripts--node_modules--resolve-url-loader--docs--basic-problem" xmlns="http://www.w3.org/2000/svg"><g fill="none" fill-rule="evenodd"><path d="M762.1 71h60v20h-60z"/><text fill="#000" font-family="Helvetica" font-size="12" transform="translate(767.5 73.5)"><tspan x="0" y="11">index.js</tspan></text><path fill="#F0F0F0" fill-rule="nonzero" d="M748.4 91h203.7v20H748.4z"/><text fill="#000" font-family="CourierNewPSMT, Courier New" font-size="10" transform="translate(753.5 97.5)"><tspan x="0" y="8">import 'foo/styles.scss';</tspan></text><path stroke="#666" d="M734.1 66v15h8"/><path d="M702.1 1h26.3v20h-26.3z"/><path fill="#434445" fill-rule="nonzero" stroke="#000" d="M703.7 1c-.3 0-.5.1-.6.3l-1 1.6v17c0 .6.3 1.1 1.1 1.1h22.1c.5 0 .6-.1.7-.5l2.3-12.2c.1-.4-.1-.8-.6-.8h-1.8v-4c0-.5-.2-.9-.9-.9h-12.4l-.9-1.3c-.1-.2-.3-.3-.6-.3h-7.4zm0 .8h7.4l1 1.6h13v4.1h-7.8c-.4 0-.6.2-.8.4l-.7 1.4h-10.5c-.5 0-.7.2-.8.6l-1.6 8.8V3.2l.8-1.4zm13.5 6.5h10.3l-2.3 11.9h-21.8l1.9-10.1h11l1-1.8z"/><path d="M728.4 1h70v20h-70z"/><text fill="#000" font-family="Helvetica" font-size="12" transform="translate(735.5 3.5)"><tspan x="0" y="11">my-project</tspan></text><path d="M702.1 1h20v20h-20zm20 40h26.3v20h-26.3z"/><path fill="#434445" fill-rule="nonzero" stroke="#000" d="M723.7 41c-.3 0-.5.1-.6.3l-1 1.6v17c0 .6.3 1.1 1.1 1.1h22.1c.5 0 .6-.1.7-.5l2.3-12.2c.1-.4-.1-.8-.6-.8h-1.8v-4c0-.5-.2-.9-.9-.9h-12.4l-.9-1.3c-.1-.2-.3-.3-.6-.3h-7.4zm0 .8h7.4l1 1.6h13v4.1h-7.8c-.4 0-.6.2-.8.4l-.7 1.4h-10.5c-.5 0-.7.2-.8.6l-1.6 8.8V43.1l.8-1.3zm13.5 6.5h10.3l-2.3 11.9h-21.8l1.9-10.1h11l1-1.8z"/><path d="M748.4 41h30v20h-30z"/><text fill="#000" font-family="Helvetica" font-size="12" transform="translate(754.5 43.5)"><tspan x="0" y="11">src</tspan></text><path d="M722.1 41h20v20h-20z"/><path stroke="#666" d="M711.1 26v25h8m13 35v45h10"/><path fill="#B3B3B3" fill-rule="nonzero" d="M765.6 301h70v20h-70z"/><text fill="#FFF" font-family="Helvetica" font-size="12" transform="translate(770.5 303.5)"><tspan x="0" y="11">cool.png</tspan></text><path fill="#FFF" fill-opacity=".5" fill-rule="nonzero" d="M742.6 301h20v20h-20z"/><path d="M765.3 121h70v20h-70z"/><text fill="#000" font-family="Helvetica" font-size="12" transform="translate(766.5 123.5)"><tspan x="0" y="11">styles.scss</tspan></text><path fill="#F0F0F0" fill-rule="nonzero" d="M751.6 141h203.7v20H751.6z"/><text fill="#000" font-family="CourierNewPSMT, Courier New" font-size="9" transform="translate(757.5 147.5)"><tspan x="0" y="7">@import "subdir/partial";</tspan></text><path d="M782.2 201h80v20h-80z"/><text fill="#000" font-family="Helvetica" font-size="12" transform="translate(787.5 203.5)"><tspan x="0" y="11">_partial.scss</tspan></text><path fill="#F0F0F0" fill-rule="nonzero" d="M768.5 221h203.7v40H768.5z"/><path stroke="#666" d="M762.2 281h-10v-65"/><path d="M742.2 171h26.3v20h-26.3z"/><path fill="#434445" fill-rule="nonzero" stroke="#000" d="M743.8 171c-.3 0-.5.1-.6.3l-1 1.6v17c0 .6.3 1.1 1.1 1.1h22.2c.4 0 .5-.2.6-.5l2.3-12.2c.1-.4-.1-.8-.6-.8H766v-4c0-.5-.2-.9-.9-.9h-12.4l-.9-1.3c-.1-.2-.3-.3-.6-.3h-7.4zm0 .8h7.4l1 1.6h13v4.1h-7.8c-.4 0-.6.2-.7.4l-.8 1.4h-10.5c-.5 0-.7.2-.8.6l-1.6 8.8v-15.5l.8-1.4zm13.6 6.5h10.2l-2.3 11.9h-21.8l2-10.1h10.8l1-1.8z"/><path d="M768.5 172h43v18h-43z"/><text fill="#000" font-family="Helvetica" font-size="12" transform="translate(774.5 173.5)"><tspan x="0" y="11">subdir</tspan></text><path d="M742.2 171h20v20h-20z"/><path stroke="#666" d="M762.2 211h-9v-15m-21-60v45h7"/><path d="M782.2 271h60v20h-60z"/><text fill="#000" font-family="Helvetica" font-size="12" transform="translate(787.5 273.5)"><tspan x="0" y="11">cool.png</tspan></text><path stroke="#666" d="M742.1 311h-10V187"/><path stroke="#666" stroke-dasharray="3" d="M709 141c-18 26.7-27 53.3-27 80 0 26.7 7.6 51 22.5 73.3"/><path stroke="#666" d="m708.5 300.1-6.9-3.9 5.9-3.9z"/><path d="M105.3 71h60v20h-60z"/><text fill="#000" font-family="Helvetica" font-size="12" transform="translate(110.5 73.5)"><tspan x="0" y="11">index.js</tspan></text><path fill="#F0F0F0" fill-rule="nonzero" d="M91.6 91h203.7v20H91.6z"/><text fill="#000" font-family="CourierNewPSMT, Courier New" font-size="10" transform="translate(97.5 97.5)"><tspan x="0" y="8">import 'styles.scss';</tspan></text><path stroke="#666" d="M75.3 66v15h10"/><path d="M45.3 1h26.3v20H45.3z"/><path fill="#434445" fill-rule="nonzero" stroke="#000" d="M46.9 1c-.4 0-.5.1-.6.3l-1 1.6v17c0 .6.3 1.1 1 1.1h22.2c.4 0 .5-.1.6-.5l2.4-12.2c0-.4-.2-.8-.7-.8H69v-4c0-.5-.2-.9-.8-.9H55.7L55 1.3c-.2-.2-.3-.3-.6-.3H47zm0 .8h7.3l1 1.6h13v4.1h-7.8c-.3 0-.5.2-.7.4L59 9.3H48.4c-.4 0-.6.2-.7.6L46 18.7V3.2l.9-1.4zm13.5 6.5h10.3l-2.3 11.9H46.6l1.9-10.1h10.9l1-1.8z"/><path d="M71.6 1h70v20h-70z"/><text fill="#000" font-family="Helvetica" font-size="12" transform="translate(78.5 3.5)"><tspan x="0" y="11">my-project</tspan></text><path d="M45.3 1h20v20h-20zm20 40h26.3v20H65.3z"/><path fill="#434445" fill-rule="nonzero" stroke="#000" d="M66.9 41c-.4 0-.5.1-.6.3l-1 1.6v17c0 .6.3 1.1 1 1.1h22.2c.4 0 .5-.1.6-.5l2.4-12.2c0-.4-.2-.8-.7-.8H89v-4c0-.5-.2-.9-.8-.9H75.7l-.8-1.3c-.2-.2-.3-.3-.7-.3H67zm0 .8h7.3l1 1.6h13v4.1h-7.8c-.3 0-.5.2-.7.4l-.8 1.4H68.4c-.4 0-.6.2-.7.6L66 58.7V43.1l.9-1.3zm13.5 6.5h10.3l-2.3 11.9H66.6l1.9-10.1h10.9l1-1.8z"/><path d="M91.6 41h30v20h-30z"/><text fill="#000" font-family="Helvetica" font-size="12" transform="translate(98.5 43.5)"><tspan x="0" y="11">src</tspan></text><path d="M65.3 41h20v20h-20z"/><path stroke="#666" d="M55.3 26v25h7"/><path d="M105.3 121h70v20h-70z"/><text fill="#000" font-family="Helvetica" font-size="12" transform="translate(110.5 123.5)"><tspan x="0" y="11">styles.scss</tspan></text><path fill="#F0F0F0" fill-rule="nonzero" d="M91.6 141h203.7v40H91.6z"/><path stroke="#666" d="M75.3 87v44h10"/><path d="M105.3 191h60v20h-60z"/><text fill="#000" font-family="Helvetica" font-size="12" transform="translate(110.5 193.5)"><tspan x="0" y="11">cool.png</tspan></text><path stroke="#666" d="M75.3 137v64h10"/><path stroke="#666" stroke-dasharray="3" d="M56.3 131c-10 13.3-15 25-15 35s3.3 19.5 10 28.5"/><path stroke="#666" d="m55.6 200.1-7-3.5 5.6-4.2z"/><path d="M414 71h60v20h-60z"/><text fill="#000" font-family="Helvetica" font-size="12" transform="translate(419.5 73.5)"><tspan x="0" y="11">index.js</tspan></text><path fill="#F0F0F0" fill-rule="nonzero" d="M400.3 91H604v20H400.3z"/><text fill="#000" font-family="CourierNewPSMT, Courier New" font-size="10" transform="translate(405.5 97.5)"><tspan x="0" y="8">import 'subdir/styles.scss';</tspan></text><path stroke="#666" d="M384 66v15h10"/><path d="M354 1h26.3v20H354z"/><path fill="#434445" fill-rule="nonzero" stroke="#000" d="M355.6 1c-.3 0-.5.1-.6.3l-1 1.6v17c0 .6.3 1.1 1.1 1.1h22.1c.5 0 .6-.1.7-.5l2.3-12.2c.1-.4-.1-.8-.6-.8h-1.8v-4c0-.5-.2-.9-.9-.9h-12.4l-.9-1.3c-.1-.2-.3-.3-.6-.3h-7.4zm0 .8h7.4l1 1.6h13v4.1h-7.8c-.4 0-.6.2-.7.4l-.8 1.4h-10.5c-.5 0-.7.2-.8.6l-1.6 8.8V3.2l.8-1.4zm13.5 6.5h10.3l-2.3 11.9h-21.8l2-10.1H368l1-1.8z"/><path d="M380.3 1h70v20h-70z"/><text fill="#000" font-family="Helvetica" font-size="12" transform="translate(387.5 3.5)"><tspan x="0" y="11">my-project</tspan></text><path d="M354 1h20v20h-20zm20 40h26.3v20H374z"/><path fill="#434445" fill-rule="nonzero" stroke="#000" d="M375.6 41c-.3 0-.5.1-.6.3l-1 1.6v17c0 .6.3 1.1 1.1 1.1h22.1c.5 0 .6-.1.7-.5l2.3-12.2c.1-.4-.1-.8-.6-.8h-1.8v-4c0-.5-.2-.9-.9-.9h-12.4l-.9-1.3c-.1-.2-.3-.3-.6-.3h-7.4zm0 .8h7.4l1 1.6h13v4.1h-7.8c-.4 0-.6.2-.7.4l-.8 1.4h-10.5c-.5 0-.7.2-.8.6l-1.6 8.8V43.1l.8-1.3zm13.5 6.5h10.3l-2.3 11.9h-21.8l2-10.1H388l1-1.8z"/><path d="M400.3 41h30v20h-30z"/><text fill="#000" font-family="Helvetica" font-size="12" transform="translate(406.5 43.5)"><tspan x="0" y="11">src</tspan></text><path d="M374 41h20v20h-20z"/><path stroke="#666" d="M365 26v25h6"/><path d="M434 151h70v20h-70z"/><text fill="#000" font-family="Helvetica" font-size="12" transform="translate(439.5 153.5)"><tspan x="0" y="11">styles.scss</tspan></text><path fill="#F0F0F0" fill-rule="nonzero" d="M420.3 171H624v40H420.3z"/><path stroke="#666" d="M414 231h-10v-65"/><path d="M394 121h26.3v20H394z"/><path fill="#434445" fill-rule="nonzero" stroke="#000" d="M395.6 121c-.3 0-.5.1-.6.3l-1 1.6v17c0 .6.3 1.1 1.1 1.1h22.1c.5 0 .6-.2.7-.5l2.3-12.2c.1-.4-.1-.8-.6-.8h-1.8v-4c0-.5-.2-.9-.9-.9h-12.4l-.9-1.3c-.1-.2-.3-.3-.6-.3h-7.4zm0 .8h7.4l1 1.6h13v4.1h-7.8c-.4 0-.6.2-.7.4l-.8 1.4h-10.5c-.5 0-.7.2-.8.6l-1.6 8.8v-15.5l.8-1.4zm13.5 6.5h10.3l-2.3 11.9h-21.8l2-10.1H408l1-1.8z"/><path d="M420.3 121h50v20h-50z"/><text fill="#000" font-family="Helvetica" font-size="12" transform="translate(425.5 123.5)"><tspan x="0" y="11">subdir</tspan></text><path d="M394 121h20v20h-20z"/><path stroke="#666" d="M414 161h-9v-15m-21-60v45h7"/><path d="M434 221h60v20h-60z"/><text fill="#000" font-family="Helvetica" font-size="12" transform="translate(0 1)"><tspan x="439.5" y="233.5">cool.png</tspan></text><path stroke="#666" stroke-dasharray="3" d="M386.3 161c-10 13.3-15 25-15 35s3.3 19.5 10 28.5"/><path stroke="#666" d="m385.6 230.1-7-3.5 5.6-4.2z"/><g fill="#000" font-family="CourierNewPSMT, Courier New" font-size="9"><text transform="translate(96 147)"><tspan x="0" y="7">.cool {</tspan> <tspan x="0" y="27">}</tspan></text><text transform="translate(96 147)"><tspan x="10" y="17">background-image: url(cool.png);</tspan></text></g><g fill="#000" font-family="CourierNewPSMT, Courier New" font-size="9"><text transform="translate(424 177)"><tspan x="0" y="7">.cool {</tspan> <tspan x="0" y="27">}</tspan></text><text transform="translate(424 177)"><tspan x="10" y="17">background-image: url(cool.png);</tspan></text></g><g fill="#000" font-family="CourierNewPSMT, Courier New" font-size="9"><text transform="translate(775 228)"><tspan x="0" y="7">.cool {</tspan> <tspan x="0" y="27">}</tspan></text><text transform="translate(775 228)"><tspan x="10" y="17">background-image: url(cool.png);</tspan></text></g><path fill="#000" fill-rule="nonzero" d="M100.8 81.7v.9l-.1.3-.3.1h-8.8l-.3-.1-.1-.3v-.9l.1-.2.3-.2h8.8c.1 0 .2 0 .3.2l.1.2zm-3.1-3.3v1.1l-.3.2h-6l-.1-.2-.1-.3v-1.1l.3-.1h6l.1.1.1.3zm-8.1 8h12.8v-10h-5.2c-.3 0-.6-.2-.9-.4-.2-.3-.3-.6-.3-1v-5.3h-6.4v16.6zm8-11.7h3.7l-3.7-4v4zm6.4 1.6v10.4c0 .4-.1.7-.3 1l-.9.3H89.2a1 1 0 0 1-.8-.4c-.3-.2-.4-.5-.4-.9V69.2c0-.3.1-.6.4-.8.2-.3.5-.4.8-.4H96c.3 0 .7 0 1.1.3.4.1.7.3 1 .6l5 5.3a3.1 3.1 0 0 1 .8 2.1zm304.8 5.5v.8l-.1.3-.3.1h-8.8l-.3-.1-.1-.3v-.8l.1-.3.3-.2h8.8c.1 0 .2 0 .3.2l.1.3zm-3.1-3.4v1.1l-.3.2h-6l-.1-.2-.1-.2v-1.2l.3-.1h6l.1.1.1.3zm-8.1 8h12.8v-10h-5.2c-.3 0-.6-.2-.8-.4-.3-.3-.4-.6-.4-1v-5.3h-6.4v16.6zm8-11.7h3.7l-3.7-4v4zm6.4 1.6v10.5a1.1 1.1 0 0 1-1.2 1.3l-13.6-.1c-.3 0-.6-.1-.9-.4-.2-.2-.3-.5-.3-.8V69.3c0-.4.1-.7.3-1l.9-.3h6.8c.3 0 .7 0 1.1.3.4.1.7.3 1 .6l5 5.3c.3.2.5.6.6 1l.3 1.1zm345.8 55.5v.8l-.1.3-.3.1h-8.8l-.3-.1-.1-.3v-.9l.1-.2.3-.2h8.8c.1 0 .2 0 .3.2l.1.2zm-3.1-3.4v1.1l-.3.2h-6l-.1-.2-.1-.2v-1.2l.3-.1h6l.1.1.1.3zm-8.1 8h12.8v-10h-5.2c-.3 0-.6-.2-.9-.4-.2-.3-.3-.6-.3-1v-5.3h-6.4v16.6zm8-11.7h3.7l-3.7-4v4zm6.4 1.6v10.5c0 .3-.1.6-.4.8a1 1 0 0 1-.8.4h-13.6c-.3 0-.6-.1-.9-.4-.2-.2-.3-.5-.3-.9v-17.4c0-.4.1-.7.3-1l.9-.3h6.8c.3 0 .7 0 1.1.3.4.1.7.3 1 .6l5 5.3c.3.2.5.6.6 1l.3 1.1zm-3.2-44.5v.8l-.1.3-.3.1h-8.8l-.3-.1-.1-.3v-.8l.1-.3.3-.2h8.8c.1 0 .2 0 .3.2l.1.3zm-3.1-3.4v1.1l-.3.2h-6l-.1-.2-.1-.3v-1.1l.3-.1h6l.1.1.1.3zm-8.1 8h12.8v-10h-5.2c-.3 0-.6-.2-.9-.4-.2-.3-.3-.6-.3-1v-5.3h-6.4v16.6zm8-11.7h3.7l-3.7-4v4zm6.4 1.6v10.5c0 .3-.1.6-.4.8a1 1 0 0 1-.8.4h-13.6c-.3 0-.6-.1-.9-.4-.2-.2-.3-.5-.3-.8V69.3c0-.4.1-.7.3-1l.9-.3h6.8c.3 0 .7 0 1.1.3.4.1.7.3 1 .6l5 5.3c.3.2.5.6.6 1l.3 1.1zm-660.2 55.5v.8l-.1.3-.3.1h-8.8l-.3-.1-.1-.3v-.9l.1-.2.3-.2h8.8c.1 0 .2 0 .3.2l.1.2zm-3.1-3.4v1.1l-.3.2h-6l-.1-.2-.1-.2v-1.2l.3-.1h6l.1.1.1.3zm-8.1 8h12.8v-10h-5.2c-.3 0-.6-.2-.9-.4-.2-.3-.3-.6-.3-1v-5.3h-6.4v16.6zm8-11.7h3.7l-3.7-4v4zm6.4 1.6v10.5a1.1 1.1 0 0 1-1.2 1.3l-13.6-.1a1 1 0 0 1-.8-.4c-.3-.2-.4-.5-.4-.9v-17.4c0-.4.1-.7.4-1 .2-.2.5-.3.8-.3H96c.3 0 .7 0 1.1.3.4.1.7.3 1 .6l5 5.3a3.1 3.1 0 0 1 .8 2.1zm-3.2 76.5v.8l-.1.3-.3.1h-8.8l-.3-.1-.1-.3v-.9l.1-.2.3-.2h8.8c.1 0 .2 0 .3.2l.1.2zm-3.1-3.4v1.1l-.3.2h-6l-.1-.2-.1-.2v-1.2l.3-.1h6l.1.1.1.3zm-8.1 8h12.8v-10h-5.2c-.3 0-.6-.2-.9-.4-.2-.3-.3-.6-.3-1v-5.3h-6.4v16.6zm8-11.7h3.7l-3.7-4v4zm6.4 1.6v10.4c0 .4-.1.7-.3 1l-.9.3H89.2a1 1 0 0 1-.8-.4c-.3-.2-.4-.5-.4-.9v-17.4c0-.4.1-.7.4-1 .2-.2.5-.3.8-.3H96c.3 0 .7 0 1.1.3.4.1.7.3 1 .6l5 5.3a3.1 3.1 0 0 1 .8 2.1zm324.8-35.5v.8l-.1.3-.3.1h-8.8l-.3-.1-.1-.3v-.9l.1-.2.3-.2h8.8c.1 0 .2 0 .3.2l.1.2zm-3.1-3.4v1.1l-.3.2h-6l-.1-.2-.1-.2v-1.2l.3-.1h6l.1.1.1.3zm-8.1 8h12.8v-10h-5.2c-.3 0-.6-.2-.8-.4-.3-.3-.4-.6-.4-1v-5.3h-6.4v16.6zm8-11.7h3.7l-3.7-4v4zm6.4 1.6v10.4c0 .4-.1.7-.3 1l-.9.3h-13.6c-.3 0-.6-.1-.9-.4-.2-.2-.3-.5-.3-.9v-17.4c0-.4.1-.7.3-1l.9-.3h6.8c.3 0 .7 0 1.1.3.4.1.7.3 1 .6l5 5.3c.3.2.5.6.6 1l.3 1.1zm-3.2 76.5v.8l-.1.3-.3.1h-8.8l-.3-.1-.1-.3v-.9l.1-.2.3-.2h8.8c.1 0 .2 0 .3.2l.1.2zm-3.1-3.4v1.1l-.3.2h-6l-.1-.2-.1-.2v-1.2l.3-.1h6l.1.1.1.3zm-8.1 8h12.8v-10h-5.2c-.3 0-.6-.2-.8-.4-.3-.3-.4-.6-.4-1v-5.3h-6.4v16.6zm8-11.7h3.7l-3.7-4v4zm6.4 1.6v10.4c0 .4-.1.7-.3 1l-.9.3h-13.6c-.3 0-.6-.1-.9-.4-.2-.2-.3-.5-.3-.9v-17.4c0-.4.1-.7.3-1l.9-.3h6.8c.3 0 .7 0 1.1.3.4.1.7.3 1 .6l5 5.3c.3.2.5.6.6 1l.3 1.1zm345.8-15.5v.8l-.1.3-.3.1h-8.8l-.3-.1-.1-.3v-.8l.1-.3.3-.2h8.8c.1 0 .2 0 .3.2l.1.3zm-3.1-3.4v1.1l-.3.2h-6l-.1-.2-.1-.2v-1.2l.3-.1h6l.1.1.1.3zm-8.1 8h12.8v-10h-5.2c-.3 0-.6-.2-.9-.4-.2-.3-.3-.6-.3-1v-5.3h-6.4v16.6zm8-11.7h3.7l-3.7-4v4zm6.4 1.6v10.5c0 .3-.1.6-.4.8a1 1 0 0 1-.8.4h-13.6c-.3 0-.6-.1-.9-.4-.2-.2-.3-.5-.3-.8v-17.5c0-.4.1-.7.3-1l.9-.3h6.8c.3 0 .7 0 1.1.3.4.1.7.3 1 .6l5 5.3c.3.2.5.6.6 1l.3 1.1zm-3.2 76.5v.8l-.1.3-.3.1h-8.8l-.3-.1-.1-.3v-.9l.1-.2.3-.2h8.8c.1 0 .2 0 .3.2l.1.3zm-3.1-3.4v1.1l-.3.2h-6l-.1-.2-.1-.3v-1.1l.3-.1h6l.1.1.1.3zm-8.1 8h12.8v-10h-5.2c-.3 0-.6-.2-.9-.4-.2-.3-.3-.6-.3-1v-5.3h-6.4v16.6zm8-11.7h3.7l-3.7-4v4zm6.4 1.6v10.4c0 .4-.1.7-.4 1-.2.2-.5.3-.8.3h-13.6c-.3 0-.6-.1-.9-.4-.2-.2-.3-.5-.3-.9v-17.5a1.1 1.1 0 0 1 1.2-1.3l6.8.1c.3 0 .7 0 1.1.3.4.1.7.3 1 .6l5 5.3c.3.2.5.6.6 1l.3 1.1z"/><path fill="#B3B3B3" fill-rule="nonzero" d="M757.8 314.8v.8l-.1.3-.3.1h-8.8l-.3-.1-.1-.3v-.9l.1-.2.3-.2h8.8c.1 0 .2 0 .3.2l.1.3zm-3.1-3.4v1.1l-.3.2h-6l-.1-.2-.1-.3v-1.1l.3-.1h6l.1.1.1.3zm-8.1 8h12.8v-10h-5.2c-.3 0-.6-.2-.9-.4-.2-.3-.3-.6-.3-1v-5.3h-6.4v16.6zm8-11.7h3.7l-3.7-4v4zm6.4 1.6v10.4c0 .4-.1.7-.4 1-.2.2-.5.3-.8.3h-13.6c-.3 0-.6-.1-.9-.4-.2-.2-.3-.5-.3-.9v-17.5a1.1 1.1 0 0 1 1.2-1.3l6.8.1c.3 0 .7 0 1.1.3.4.1.7.3 1 .6l5 5.3c.3.2.5.6.6 1l.3 1.1z"/><g fill-rule="nonzero"><path fill="#FFF" d="m11 217 11 6.2v12.6L11 242l-11-6.2v-12.6z"/><path fill="#8ED6FB" d="m20.4 236-8.5 5v-4l5.3-3 3.2 2zm.6-.6v-10.5l-3.1 1.8v6.8l3.1 1.9zm-18.4.6 8.5 5v-4l-5.3-3-3.2 2zm-.6-.6v-10.5l3.1 1.8v6.8L2 235.4zm.4-11.2L11 219v3.8L5.5 226l-3.1-1.8zm18.2 0L12 219v3.8l5.6 3.2 3.1-1.8z"/><path fill="#1C78C0" d="M11.6 236 6 233v-6.2l5.6 3.2v6zm.8 0 5.6-3v-6.2l-5.6 3.2v6zm-6-9.9L12 223l5.6 3.1-5.6 3.2-5.6-3.2z"/><path fill="#1A1C1C" d="M33.8 233.3H36l2.5-7.4h-2.3l-1.5 5.3-1.5-5.3h-2l-1.6 5.3-1.4-5.3H26l2.4 7.4h2.4l1.5-4.8 1.5 4.8zm4.9-3.7c0 2.3 1.6 4 4.2 4a4 4 0 0 0 3.4-1.7l-1.4-1c-.2.3-.8.9-2 .9-1.1 0-2-.7-2-1.7h5.7v-.4c0-2.5-1.5-4-4-4-2.3 0-4 1.7-4 4zm2.2-.8c.1-.9.8-1.5 1.8-1.5s1.7.6 1.7 1.5h-3.5zm6.5 4.5h2v-.7c.2.2 1 1 2.4 1 2.3 0 4-1.7 4-4s-1.6-4-4-4c-1.3 0-2.1.8-2.3 1V223h-2.1v10.3zm2-3.7c0-1.4 1-2.2 2.1-2.2 1.2 0 2 1 2 2.2 0 1.3-.8 2.2-2 2.2-1.3 0-2-1-2-2.2zm7.2 6.4h2v-3.4c.3.2 1 1 2.5 1 2.3 0 3.8-1.7 3.8-4s-1.6-4-4-4c-1.3 0-2.1.8-2.3 1v-.7h-2V236zm2-6.4c0-1.2.8-2.2 2-2.2 1.3 0 2.2.8 2.2 2.2 0 1.3-.9 2.2-2.1 2.2-1.2 0-2-.8-2-2.2zm6.7 1.4c0 1.6 1.4 2.5 3 2.5 1 0 1.6-.2 2-.7l.1.5h1.9v-4.7c0-1.7-.8-3-3.4-3-1.2 0-2.4.5-3.1 1l.8 1.3a5 5 0 0 1 2.1-.5c1 0 1.5.4 1.5 1v.6c-.3-.2-1-.5-1.8-.5-1.9 0-3.1 1-3.1 2.5zm2.1 0c0-.7.6-1 1.4-1 .8 0 1.4.3 1.4 1 0 .6-.6 1-1.4 1-.8 0-1.4-.4-1.4-1zm10 .8c-1.3 0-2.2-1-2.2-2.2 0-1.2.8-2.2 2.2-2.2 1 0 1.5.4 1.9.7l.6-1.6c-.5-.4-1.4-.8-2.6-.8-2.4 0-4.3 1.6-4.3 4 0 2.2 1.8 3.8 4.4 3.8 1.1 0 2-.4 2.5-.8l-.6-1.6a3 3 0 0 1-1.8.7zm3.3 1.5h2.1v-3.8l2.7 3.8H88l-3-4 2.8-3.4h-2.4l-2.6 3.1v-6h-2.1v10.3z"/></g><g fill-rule="nonzero"><path fill="#FFF" d="m339 249 11 6.2v12.6l-11 6.2-11-6.2v-12.6z"/><path fill="#8ED6FB" d="m348.4 268-8.5 5v-4l5.3-3 3.2 2zm.6-.6v-10.5l-3.1 1.8v6.8l3.1 1.9zm-18.4.6 8.5 5v-4l-5.3-3-3.2 2zm-.6-.6v-10.5l3.1 1.8v6.8l-3.1 1.9zm.4-11.2 8.7-5.2v3.8l-5.6 3.2-3.1-1.8zm18.2 0L340 251v3.8l5.6 3.2 3.1-1.8z"/><path fill="#1C78C0" d="m339.6 268-5.6-3v-6.2l5.6 3.2v6zm.8 0 5.6-3v-6.2l-5.6 3.2v6zm-6-9.9 5.6-3.1 5.6 3.1-5.6 3.2-5.6-3.2z"/><path fill="#1A1C1C" d="M361.8 265.3h2.3l2.5-7.4h-2.3l-1.5 5.3-1.5-5.3h-2l-1.6 5.3-1.4-5.3H354l2.4 7.4h2.4l1.5-4.8 1.5 4.8zm4.9-3.7c0 2.3 1.6 4 4.2 4a4 4 0 0 0 3.4-1.7l-1.4-1c-.2.3-.8.9-2 .9-1.1 0-2-.7-2-1.7h5.7v-.4c0-2.5-1.5-4-4-4-2.3 0-4 1.7-4 4zm2.2-.8c.1-.9.8-1.5 1.8-1.5s1.7.6 1.7 1.5h-3.5zm6.5 4.5h2v-.7c.2.2 1 1 2.4 1 2.3 0 4-1.7 4-4s-1.6-4-4-4c-1.3 0-2.1.8-2.3 1V255h-2.1v10.3zm2-3.7c0-1.4 1-2.2 2.1-2.2 1.2 0 2 1 2 2.2 0 1.3-.8 2.2-2 2.2-1.3 0-2-1-2-2.2zm7.2 6.4h2v-3.4c.3.2 1 1 2.5 1 2.3 0 3.8-1.7 3.8-4s-1.6-4-4-4c-1.3 0-2.1.8-2.3 1v-.7h-2V268zm2-6.4c0-1.2.8-2.2 2-2.2 1.3 0 2.2.8 2.2 2.2 0 1.3-.9 2.2-2.1 2.2-1.2 0-2-.8-2-2.2zm6.7 1.4c0 1.6 1.4 2.5 3 2.5 1 0 1.6-.2 2-.7l.1.5h1.9v-4.7c0-1.7-.8-3-3.4-3-1.2 0-2.4.5-3.1 1l.8 1.3a5 5 0 0 1 2.1-.5c1 0 1.5.4 1.5 1v.6c-.3-.2-1-.5-1.8-.5-1.9 0-3.1 1-3.1 2.5zm2.1 0c0-.7.6-1 1.4-1 .8 0 1.4.3 1.4 1 0 .6-.6 1-1.4 1-.8 0-1.4-.4-1.4-1zm10 .8c-1.3 0-2.2-1-2.2-2.2 0-1.2.8-2.2 2.2-2.2 1 0 1.5.4 1.9.7l.6-1.6c-.5-.4-1.4-.8-2.6-.8-2.4 0-4.3 1.6-4.3 4 0 2.2 1.8 3.8 4.4 3.8 1.1 0 2-.4 2.5-.8l-.6-1.6a3 3 0 0 1-1.8.7zm3.3 1.5h2.1v-3.8l2.7 3.8h2.5l-3-4 2.8-3.4h-2.4l-2.6 3.1v-6h-2.1v10.3z"/></g><g fill-rule="nonzero"><path fill="#FFF" d="m667 331 11 6.2v12.6l-11 6.2-11-6.2v-12.6z"/><path fill="#8ED6FB" d="m676.4 350-8.5 5v-4l5.3-3 3.2 2zm.6-.6v-10.5l-3.1 1.8v6.8l3.1 1.9zm-18.4.6 8.5 5v-4l-5.3-3-3.2 2zm-.6-.6v-10.5l3.1 1.8v6.8l-3.1 1.9zm.4-11.2 8.7-5.2v3.8l-5.6 3.2-3.1-1.8zm18.2 0L668 333v3.8l5.6 3.2 3.1-1.8z"/><path fill="#1C78C0" d="m667.6 350-5.6-3v-6.2l5.6 3.2v6zm.8 0 5.6-3v-6.2l-5.6 3.2v6zm-6-9.9 5.6-3.1 5.6 3.1-5.6 3.2-5.6-3.2z"/><path fill="#1A1C1C" d="M689.8 347.3h2.3l2.5-7.4h-2.3l-1.5 5.3-1.5-5.3h-2l-1.6 5.3-1.4-5.3H682l2.4 7.4h2.4l1.5-4.8 1.5 4.8zm4.9-3.7c0 2.3 1.6 4 4.2 4a4 4 0 0 0 3.4-1.7l-1.4-1c-.2.3-.8.9-2 .9-1.1 0-2-.7-2-1.7h5.7v-.4c0-2.5-1.5-4-4-4-2.3 0-4 1.7-4 4zm2.2-.8c.1-.9.8-1.5 1.8-1.5s1.7.6 1.7 1.5h-3.5zm6.5 4.5h2v-.7c.2.2 1 1 2.4 1 2.3 0 4-1.7 4-4s-1.6-4-4-4c-1.3 0-2.1.8-2.3 1V337h-2.1v10.3zm2-3.7c0-1.4 1-2.2 2.1-2.2 1.2 0 2 1 2 2.2 0 1.3-.8 2.2-2 2.2-1.3 0-2-1-2-2.2zm7.2 6.4h2v-3.4c.3.2 1 1 2.5 1 2.3 0 3.8-1.7 3.8-4s-1.6-4-4-4c-1.3 0-2.1.8-2.3 1v-.7h-2V350zm2-6.4c0-1.2.8-2.2 2-2.2 1.3 0 2.2.8 2.2 2.2 0 1.3-.9 2.2-2.1 2.2-1.2 0-2-.8-2-2.2zm6.7 1.4c0 1.6 1.4 2.5 3 2.5 1 0 1.6-.2 2-.7l.1.5h1.9v-4.7c0-1.7-.8-3-3.4-3-1.2 0-2.4.5-3.1 1l.8 1.3a5 5 0 0 1 2.1-.5c1 0 1.5.4 1.5 1v.6c-.3-.2-1-.5-1.8-.5-1.9 0-3.1 1-3.1 2.5zm2.1 0c0-.7.6-1 1.4-1 .8 0 1.4.3 1.4 1 0 .6-.6 1-1.4 1-.8 0-1.4-.4-1.4-1zm10 .8c-1.3 0-2.2-1-2.2-2.2 0-1.2.8-2.2 2.2-2.2 1 0 1.5.4 1.9.7l.6-1.6c-.5-.4-1.4-.8-2.6-.8-2.4 0-4.3 1.6-4.3 4 0 2.2 1.8 3.8 4.4 3.8 1.1 0 2-.4 2.5-.8l-.6-1.6a3 3 0 0 1-1.8.7zm3.3 1.5h2.1v-3.8l2.7 3.8h2.5l-3-4 2.8-3.4h-2.4l-2.6 3.1v-6h-2.1v10.3z"/></g><path fill="#41AD49" fill-rule="nonzero" d="M175 185a16 16 0 1 1 0 32 16 16 0 0 1 0-32zm8.2 8-11 11.3-5.4-5.5-2.8 2.8 8.2 8.4 13.8-14.2-2.8-2.8zM504 214a16 16 0 1 1 0 32 16 16 0 0 1 0-32zm8.2 8-11 11.3-5.4-5.5-2.8 2.8 8.2 8.4 13.8-14.2-2.8-2.8z"/><path fill="#E44061" fill-rule="nonzero" d="M855 295a16 16 0 1 1 0 32 16 16 0 0 1 0-32zm6.7 6-6.7 6.7-6.6-6.6-3.6 3.5 6.7 6.6-6.7 6.7 3.5 3.5 6.7-6.6 6.6 6.6 3.6-3.5-6.7-6.7 6.7-6.6-3.5-3.6z"/></g></symbol><symbol viewBox="0 0 360 650" id="node_modules--react-scripts--node_modules--resolve-url-loader--docs--detailed-problem" xmlns="http://www.w3.org/2000/svg"><g fill="none" fill-rule="evenodd"><path d="M110.1 71h60v20h-60z"/><text fill="#000" font-family="Helvetica" font-size="12" transform="translate(111.5 73.5)"><tspan x="0" y="11">index.js</tspan></text><path stroke="#666" d="M80.1 63v18h10"/><path fill="#434445" fill-rule="nonzero" stroke="#000" d="M51.7 1c-.3 0-.5.1-.6.3l-1 1.6v17c0 .6.3 1.1 1.1 1.1h22.1c.5 0 .6-.1.7-.5l2.3-12.2c.1-.4-.1-.8-.6-.8h-1.8v-4c0-.5-.2-.9-.9-.9H60.6l-.9-1.3c-.1-.2-.3-.3-.6-.3h-7.4zm0 .8h7.4l1 1.6h13v4.1h-7.8c-.4 0-.6.2-.8.4l-.7 1.4H53.3c-.5 0-.7.2-.8.6L51 18.7V3.2l.8-1.4zm13.5 6.5h10.3l-2.3 11.9H51.4l1.9-10.1h11l1-1.8z"/><path d="M76.4 1h70v20h-70z"/><text fill="#000" font-family="Helvetica" font-size="12" transform="translate(81.5 3.5)"><tspan x="0" y="11">my-project</tspan></text><path d="M70.1 41h26.3v20H70.1z"/><path fill="#434445" fill-rule="nonzero" stroke="#000" d="M71.7 41c-.3 0-.5.1-.6.3l-1 1.6v17c0 .6.3 1.1 1.1 1.1h22.1c.5 0 .6-.1.7-.5l2.3-12.2c.1-.4-.1-.8-.6-.8h-1.8v-4c0-.5-.2-.9-.9-.9H80.6l-.9-1.3c-.1-.2-.3-.3-.6-.3h-7.4zm0 .8h7.4l1 1.6h13v4.1h-7.8c-.4 0-.6.2-.8.4l-.7 1.4H73.3c-.5 0-.7.2-.8.6L71 58.7V43.1l.8-1.3zm13.5 6.5h10.3l-2.3 11.9H71.4l1.9-10.1h11l1-1.8z"/><path d="M96.4 41h30v20h-30z"/><text fill="#000" font-family="Helvetica" font-size="12" transform="translate(100 44)"><tspan x="0" y="11">src</tspan></text><path stroke="#666" d="M60.1 23v28h8m12 35v45h10"/><path d="M113.3 121h70v20h-70z"/><text fill="#000" font-family="Helvetica" font-size="12" transform="translate(114.5 123.5)"><tspan x="0" y="11">styles.scss</tspan></text><path fill="#F0F0F0" fill-rule="nonzero" d="M99.6 141h203.7v20H99.6z"/><text fill="#000" font-family="CourierNewPSMT, Courier New" font-size="9" transform="translate(105.5 147.5)"><tspan x="0" y="7">@import "foo/partial";</tspan></text><path d="M130.2 201h80v20h-80z"/><text fill="#000" font-family="Helvetica" font-size="12" transform="translate(131.5 203.5)"><tspan x="0" y="11">_partial.scss</tspan></text><path fill="#F0F0F0" fill-rule="nonzero" d="M116.5 221h203.7v60H116.5z"/><text fill="#000" font-family="CourierNewPSMT, Courier New" font-size="9" transform="translate(123 227)"><tspan x=".7" y="7.5">@import "bar/mixins";</tspan>  <tspan x=".7" y="27.5">.cool {</tspan>  <tspan x=".7" y="47.5">}</tspan></text><text fill="#000" font-family="CourierNewPSMT, Courier New" font-size="9" transform="translate(138 258)"><tspan x="0" y="7">@include cool-background-image;</tspan></text><path d="M90.2 171h26.3v20H90.2z"/><path fill="#434445" fill-rule="nonzero" stroke="#000" d="M91.8 171c-.3 0-.5.1-.6.3l-1 1.6v17c0 .6.3 1.1 1.1 1.1h22.2c.4 0 .5-.2.6-.5l2.3-12.2c.1-.4-.1-.8-.6-.8H114v-4c0-.5-.2-.9-.8-.9h-12.5l-.9-1.3c-.1-.2-.3-.3-.6-.3h-7.4zm0 .8h7.4l1 1.6h13v4.1h-7.8c-.4 0-.6.2-.7.4l-.8 1.4H93.4c-.5 0-.7.2-.8.6l-1.6 8.8v-15.5l.8-1.4zm13.5 6.5h10.3l-2.3 11.9H91.5l2-10.1h10.8l1-1.8z"/><path d="M116.5 171h40v20h-40z"/><text fill="#000" font-family="Helvetica" font-size="12" transform="translate(120.5 173.5)"><tspan x="0" y="11">foo</tspan></text><path stroke="#666" d="M110.2 211h-10v-18m-20-57v45h8M108 301h-8v-84"/><path d="M110 291h26.3v20H110z"/><path fill="#434445" fill-rule="nonzero" stroke="#000" d="M111.6 291c-.3 0-.5.1-.6.3l-1 1.6v17c0 .6.3 1.1 1.1 1.1h22.2c.4 0 .5-.1.6-.5l2.3-12.2c.1-.4-.1-.8-.6-.8h-1.8v-4c0-.5-.2-.9-.9-.9h-12.4l-.9-1.3c-.1-.2-.3-.3-.6-.3h-7.4zm0 .8h7.4l1 1.6h13v4.1h-7.8c-.4 0-.6.2-.7.4l-.8 1.4h-10.5c-.5 0-.7.2-.8.6l-1.6 8.8v-15.6l.8-1.3zm13.6 6.5h10.2l-2.3 11.9h-21.8l2-10.1H124l1-1.8z"/><path d="M136.3 291h40v20h-40z"/><text fill="#000" font-family="Helvetica" font-size="12" transform="translate(139.5 293.5)"><tspan x="0" y="11">bar</tspan></text><path d="M149.5 321h80v20h-80z"/><text fill="#000" font-family="Helvetica" font-size="12" transform="translate(150.5 323.5)"><tspan x="0" y="11">_mixins.scss</tspan></text><path fill="#F0F0F0" fill-rule="nonzero" d="M135.8 341H350v60H135.8z"/><path stroke="#666" d="M129.5 331h-10v-18m9.5 108h-9v-84"/><path d="M130.5 411h26.3v20h-26.3z"/><path fill="#434445" fill-rule="nonzero" stroke="#000" d="M132 411c-.2 0-.4.1-.5.3l-1 1.6v17c0 .6.3 1.1 1 1.1h22.2c.5 0 .6-.1.6-.5l2.4-12.2c0-.4-.1-.8-.6-.8h-1.8v-4c0-.5-.3-.9-.9-.9H141l-.8-1.3c-.1-.2-.3-.3-.6-.3H132zm.1.8h7.4l1 1.6h13v4.1h-7.8c-.4 0-.6.2-.8.4l-.8 1.4h-10.5c-.4 0-.6.2-.7.6l-1.6 8.8v-15.6l.8-1.3zm13.5 6.5H156l-2.3 11.9h-21.8l1.9-10.1h11l1-1.8z"/><path d="M156.8 411h30v20h-30z"/><text fill="#000" font-family="Helvetica" font-size="12" transform="translate(160.5 413.5)"><tspan x="0" y="11">baz</tspan></text><path d="M169.9 441h100v20h-100z"/><text fill="#000" font-family="Helvetica" font-size="12" transform="translate(171.5 443.5)"><tspan x="0" y="11">_functions.scss</tspan></text><path fill="#F0F0F0" fill-rule="nonzero" d="M156.3 461h203.8v40H156.3z"/><text fill="#000" font-family="CourierNewPSMT, Courier New" font-size="9" transform="translate(161.5 467.5)"><tspan x="0" y="7">@function get-url($temp) {</tspan>  <tspan x="0" y="27">}</tspan></text><text fill="#000" font-family="CourierNewPSMT, Courier New" font-size="9" transform="translate(178 478)"><tspan x="0" y="7">@return url(#($temp).png)</tspan></text><path stroke="#666" d="M149.9 451H140l-.1-18m10.1 88h-10v-65"/><path d="M170 511h60v20h-60z"/><text fill="#000" font-family="Helvetica" font-size="12" transform="translate(171.5 513.5)"><tspan x="0" y="11">cool.png</tspan></text><path stroke="#666" d="M130 551h-10V426"/><path d="M150 541h60v20h-60z"/><text fill="#000" font-family="Helvetica" font-size="12" transform="translate(151.5 543.5)"><tspan x="0" y="11">cool.png</tspan></text><path stroke="#666" d="M109.7 581H100V306"/><path d="M129.7 571h60v20h-60z"/><text fill="#000" font-family="Helvetica" font-size="12" transform="translate(130.5 573.5)"><tspan x="0" y="11">cool.png</tspan></text><path fill="#B3B3B3" fill-rule="nonzero" d="M111.7 600h70v20h-70z"/><text fill="#FFF" font-family="Helvetica" font-size="12" transform="translate(116.5 602.5)"><tspan x="0" y="11">cool.png</tspan></text><path fill="#FFF" fill-opacity=".5" fill-rule="nonzero" d="M89.7 600h20v20h-20z"/><path stroke="#666" d="M90 610H80V186"/><path stroke="#666" stroke-dasharray="3" d="M59 141C20.3 207.7 1 281 1 361s18.2 157.6 54.5 232.7"/><path stroke="#666" d="m58.5 600-6.2-4.8 6.3-3z"/><path fill="#F0F0F0" fill-rule="nonzero" d="M100 91h203.7v20H100z"/><text fill="#000" font-family="CourierNewPSMT, Courier New" font-size="10" transform="translate(105 96)"><tspan x="0" y="8">import 'foo/styles.scss';</tspan></text><path fill="#000" fill-rule="nonzero" d="M104.8 82.7v.9l-.1.3-.3.1h-8.8l-.3-.1-.1-.3v-.9l.1-.2.3-.2h8.8c.1 0 .2 0 .3.2l.1.2zm-3.1-3.3v1.1l-.3.2h-6l-.1-.2-.1-.3v-1.1l.3-.1h6l.1.1.1.3zm-8.1 8h12.8v-10h-5.2c-.3 0-.6-.2-.9-.4-.2-.3-.3-.6-.3-1v-5.3h-6.4v16.6zm8-11.7h3.7l-3.7-4v4zm6.4 1.6v10.4c0 .4-.1.7-.3 1l-.9.3H93.2c-.3 0-.6-.1-.8-.4-.3-.2-.4-.5-.4-.9V70.2c0-.3.1-.6.4-.8.2-.3.5-.4.8-.4h6.8c.3 0 .7 0 1.1.3.4.1.7.3 1 .6l5 5.3a3.1 3.1 0 0 1 .8 2.1zm16.8 134.5v.8l-.1.3-.3.1h-8.8l-.3-.1-.1-.3v-.9l.1-.2.3-.2h8.8c.1 0 .2 0 .3.2l.1.2zm-3.1-3.4v1.1l-.3.2h-6l-.1-.2-.1-.2v-1.2l.3-.1h6l.1.1.1.3zm-8.1 8h12.8v-10h-5.2c-.3 0-.6-.2-.9-.4-.2-.3-.3-.6-.3-1v-5.3h-6.4v16.6zm8-11.7h3.7l-3.7-4v4zm6.4 1.6v10.4c0 .4-.1.7-.3 1l-.9.3h-13.6c-.3 0-.6-.1-.8-.4-.3-.2-.4-.5-.4-.9v-17.4c0-.4.1-.7.4-1 .2-.2.5-.3.8-.3h6.8c.3 0 .7 0 1.1.3.4.1.7.3 1 .6l5 5.3a3.1 3.1 0 0 1 .8 2.1zm15.8 125.5v.8l-.1.3-.3.1h-8.8l-.3-.1-.1-.3v-.9l.1-.2.3-.2h8.8c.1 0 .2 0 .3.2l.1.3zm-3.1-3.4v1.1l-.3.2h-6l-.1-.2-.1-.3v-1.1l.3-.1h6l.1.1.1.3zm-8.1 8h12.8v-10h-5.2c-.3 0-.6-.2-.8-.4-.3-.3-.4-.6-.4-1v-5.3h-6.4v16.6zm8-11.7h3.7l-3.7-4v4zm6.4 1.6v10.4c0 .4-.1.7-.3 1l-.9.3h-13.6c-.3 0-.6-.1-.8-.4-.3-.2-.4-.5-.4-.9v-17.5c0-.3.1-.6.4-.8.2-.3.5-.4.8-.4h6.8c.3 0 .7 0 1.1.3.4.1.7.3 1 .6l5 5.3a3.1 3.1 0 0 1 .8 2.1zm16.8 125.5v.8l-.1.3-.3.1h-8.8l-.3-.1-.1-.3v-.9l.1-.2.3-.2h8.8c.1 0 .2 0 .3.2l.1.3zm-3.1-3.4v1.1l-.3.2h-6l-.1-.2-.1-.3v-1.1l.3-.1h6l.1.1.1.3zm-8.1 8h12.8v-10h-5.2c-.3 0-.6-.2-.8-.4-.3-.3-.4-.6-.4-1v-5.3h-6.4v16.6zm8-11.7h3.7l-3.7-4v4zm6.4 1.6v10.4c0 .4-.1.7-.3 1l-.9.3h-13.6c-.3 0-.6-.1-.8-.4-.3-.2-.4-.5-.4-.9v-17.5c0-.3.1-.6.4-.8.2-.3.5-.4.8-.4h6.8c.3 0 .7 0 1.1.3.4.1.7.3 1 .6l5 5.3a3.1 3.1 0 0 1 .8 2.1zm-2.2 77.5v.8l-.1.3-.3.1h-8.8l-.3-.1-.1-.3v-.9l.1-.2.3-.2h8.8c.1 0 .2 0 .3.2l.1.2zm-3.1-3.4v1.1l-.3.2h-6l-.1-.2-.1-.2v-1.2l.3-.1h6l.1.1.1.3zm-8.1 8h12.8v-10h-5.2c-.3 0-.6-.2-.8-.4-.3-.3-.4-.6-.4-1v-5.3h-6.4v16.6zm8-11.7h3.7l-3.7-4v4zm6.4 1.6v10.5a1.1 1.1 0 0 1-1.2 1.3l-13.6-.1c-.3 0-.6-.1-.8-.4-.3-.2-.4-.5-.4-.9v-17.5c0-.3.1-.6.4-.8.2-.3.5-.4.8-.4h6.8c.3 0 .7 0 1.1.3.4.1.7.3 1 .6l5 5.3a3.1 3.1 0 0 1 .8 2.1zm-23.2 35.5v.8l-.1.3-.3.1h-8.8l-.3-.1-.1-.3v-.9l.1-.2.3-.2h8.8c.1 0 .2 0 .3.2l.1.2zm-3.1-3.4v1.1l-.3.2h-6l-.1-.2-.1-.2v-1.2l.3-.1h6l.1.1.1.3zm-8.1 8h12.8v-10h-5.2c-.3 0-.6-.2-.8-.4-.3-.3-.4-.6-.4-1v-5.3h-6.4v16.6zm8-11.7h3.7l-3.7-4v4zm6.4 1.6v10.5a1.1 1.1 0 0 1-1.2 1.3l-13.6-.1c-.3 0-.6-.1-.8-.4-.3-.2-.4-.5-.4-.9v-17.5c0-.3.1-.6.4-.8.2-.3.5-.4.8-.4h6.8c.3 0 .7 0 1.1.3.4.1.7.3 1 .6l5 5.3a3.1 3.1 0 0 1 .8 2.1zm-23.2 34.5v.8l-.1.3-.3.1h-8.8l-.3-.1-.1-.3v-.9l.1-.2.3-.2h8.8c.1 0 .2 0 .3.2l.1.2zm-3.1-3.4v1.1l-.3.2h-6l-.1-.2-.1-.2v-1.2l.3-.1h6l.1.1.1.3zm-8.1 8h12.8v-10h-5.2c-.3 0-.6-.2-.9-.4-.2-.3-.3-.6-.3-1v-5.3h-6.4v16.6zm8-11.7h3.7l-3.7-4v4zm6.4 1.6v10.5a1.1 1.1 0 0 1-1.2 1.3l-13.6-.1c-.3 0-.6-.1-.8-.4-.3-.2-.4-.5-.4-.9v-17.5c0-.3.1-.6.4-.8.2-.3.5-.4.8-.4h6.8c.3 0 .7 0 1.1.3.4.1.7.3 1 .6l5 5.3a3.1 3.1 0 0 1 .8 2.1zm-23.2-444.5v.8l-.1.3-.3.1h-8.8l-.3-.1-.1-.3v-.9l.1-.2.3-.2h8.8c.1 0 .2 0 .3.2l.1.2zm-3.1-3.4v1.1l-.3.2h-6l-.1-.2-.1-.2v-1.2l.3-.1h6l.1.1.1.3zm-8.1 8h12.8v-10h-5.2c-.3 0-.6-.2-.9-.4-.2-.3-.3-.6-.3-1v-5.3h-6.4v16.6zm8-11.7h3.7l-3.7-4v4zm6.4 1.6v10.5a1.1 1.1 0 0 1-1.2 1.3l-13.6-.1c-.3 0-.6-.1-.8-.4-.3-.2-.4-.5-.4-.9v-17.4c0-.4.1-.7.4-1 .2-.2.5-.3.8-.3h6.8c.3 0 .7 0 1.1.3.4.1.7.3 1 .6l5 5.3a3.1 3.1 0 0 1 .8 2.1z"/><path fill="#B3B3B3" fill-rule="nonzero" d="M104.8 613.8v.8l-.1.3-.3.1h-8.8l-.3-.1-.1-.3v-.9l.1-.2.3-.2h8.8c.1 0 .2 0 .3.2l.1.2zm-3.1-3.4v1.1l-.3.2h-6l-.1-.2-.1-.2v-1.2l.3-.1h6l.1.1.1.3zm-8.1 8h12.8v-10h-5.2c-.3 0-.6-.2-.9-.4-.2-.3-.3-.6-.3-1v-5.3h-6.4v16.6zm8-11.7h3.7l-3.7-4v4zm6.4 1.6v10.5a1.1 1.1 0 0 1-1.2 1.3l-13.6-.1c-.3 0-.6-.1-.8-.4-.3-.2-.4-.5-.4-.9v-17.5c0-.3.1-.6.4-.8.2-.3.5-.4.8-.4h6.8c.3 0 .7 0 1.1.3.4.1.7.3 1 .6l5 5.3a3.1 3.1 0 0 1 .8 2.1z"/><g fill-rule="nonzero"><path fill="#FFF" d="m13 625 11 6.2v12.6L13 650l-11-6.2v-12.6z"/><path fill="#8ED6FB" d="m22.4 644-8.5 5v-4l5.3-3 3.2 2zm.6-.6v-10.5l-3.1 1.8v6.8l3.1 1.9zm-18.4.6 8.5 5v-4l-5.3-3-3.2 2zm-.6-.6v-10.5l3.1 1.8v6.8L4 643.4zm.4-11.2L13 627v3.8L7.5 634l-3.1-1.8zm18.2 0L14 627v3.8l5.6 3.2 3.1-1.8z"/><path fill="#1C78C0" d="M13.6 644 8 641v-6.2l5.6 3.2v6zm.8 0 5.6-3v-6.2l-5.6 3.2v6zm-6-9.9L14 631l5.6 3.1-5.6 3.2-5.6-3.2z"/><path fill="#1A1C1C" d="M35.8 641.3H38l2.5-7.4h-2.3l-1.5 5.3-1.5-5.3h-2l-1.6 5.3-1.4-5.3H28l2.4 7.4h2.4l1.5-4.8 1.5 4.8zm4.9-3.7c0 2.3 1.6 4 4.2 4 2 0 3.1-1.2 3.4-1.7l-1.4-1c-.2.3-.8.9-2 .9-1.1 0-2-.7-2-1.7h5.7v-.4c0-2.5-1.5-4-4-4-2.3 0-4 1.7-4 4zm2.2-.8c.1-.9.8-1.5 1.8-1.5s1.7.6 1.7 1.5h-3.5zm6.5 4.5h2v-.7c.2.2 1 1 2.4 1 2.3 0 4-1.7 4-4s-1.6-4-4-4c-1.3 0-2.1.8-2.3 1V631h-2.1v10.3zm2-3.7c0-1.4 1-2.2 2.1-2.2 1.2 0 2 1 2 2.2 0 1.3-.8 2.2-2 2.2-1.3 0-2-1-2-2.2zm7.2 6.4h2v-3.4c.3.2 1 1 2.5 1 2.3 0 3.8-1.7 3.8-4s-1.6-4-4-4c-1.3 0-2.1.8-2.3 1v-.7h-2V644zm2-6.4c0-1.2.8-2.2 2-2.2 1.3 0 2.2.8 2.2 2.2 0 1.3-.9 2.2-2.1 2.2-1.2 0-2-.8-2-2.2zm6.7 1.4c0 1.6 1.4 2.5 3 2.5 1 0 1.6-.2 2-.7l.1.5h1.9v-4.7c0-1.7-.8-3-3.4-3-1.2 0-2.4.5-3.1 1l.8 1.3a5 5 0 0 1 2.1-.5c1 0 1.5.4 1.5 1v.6c-.3-.2-1-.5-1.8-.5-1.9 0-3.1 1-3.1 2.5zm2.1 0c0-.7.6-1 1.4-1 .8 0 1.4.3 1.4 1 0 .6-.6 1-1.4 1-.8 0-1.4-.4-1.4-1zm10 .8c-1.3 0-2.2-1-2.2-2.2 0-1.2.8-2.2 2.2-2.2 1 0 1.5.4 1.9.7l.6-1.6c-.5-.4-1.4-.8-2.6-.8-2.4 0-4.3 1.6-4.3 4 0 2.2 1.8 3.8 4.4 3.8 1.1 0 2-.4 2.5-.8l-.6-1.6a3 3 0 0 1-1.8.7zm3.3 1.5h2.1v-3.8l2.7 3.8H90l-3-4 2.8-3.4h-2.4l-2.6 3.1v-6h-2.1v10.3z"/></g><text fill="#000" font-family="CourierNewPSMT, Courier New" font-size="9" transform="translate(1 1)"><tspan x="141" y="352">@import "baz/functions";</tspan>  <tspan x="141" y="372">@mixin cool-background-image {</tspan>  <tspan x="141" y="392">}</tspan></text><text fill="#000" font-family="CourierNewPSMT, Courier New" font-size="9" transform="translate(1 1)"><tspan x="155" y="382">background-image: get-url("cool");</tspan></text></g></symbol><symbol viewBox="0 0 973 356" id="node_modules--resolve-url-loader--docs--basic-problem" xmlns="http://www.w3.org/2000/svg"><g fill="none" fill-rule="evenodd"><path d="M762.1 71h60v20h-60z"/><text fill="#000" font-family="Helvetica" font-size="12" transform="translate(767.5 73.5)"><tspan x="0" y="11">index.js</tspan></text><path fill="#F0F0F0" fill-rule="nonzero" d="M748.4 91h203.7v20H748.4z"/><text fill="#000" font-family="CourierNewPSMT, Courier New" font-size="10" transform="translate(753.5 97.5)"><tspan x="0" y="8">import 'foo/styles.scss';</tspan></text><path stroke="#666" d="M734.1 66v15h8"/><path d="M702.1 1h26.3v20h-26.3z"/><path fill="#434445" fill-rule="nonzero" stroke="#000" d="M703.7 1c-.3 0-.5.1-.6.3l-1 1.6v17c0 .6.3 1.1 1.1 1.1h22.1c.5 0 .6-.1.7-.5l2.3-12.2c.1-.4-.1-.8-.6-.8h-1.8v-4c0-.5-.2-.9-.9-.9h-12.4l-.9-1.3c-.1-.2-.3-.3-.6-.3h-7.4zm0 .8h7.4l1 1.6h13v4.1h-7.8c-.4 0-.6.2-.8.4l-.7 1.4h-10.5c-.5 0-.7.2-.8.6l-1.6 8.8V3.2l.8-1.4zm13.5 6.5h10.3l-2.3 11.9h-21.8l1.9-10.1h11l1-1.8z"/><path d="M728.4 1h70v20h-70z"/><text fill="#000" font-family="Helvetica" font-size="12" transform="translate(735.5 3.5)"><tspan x="0" y="11">my-project</tspan></text><path d="M702.1 1h20v20h-20zm20 40h26.3v20h-26.3z"/><path fill="#434445" fill-rule="nonzero" stroke="#000" d="M723.7 41c-.3 0-.5.1-.6.3l-1 1.6v17c0 .6.3 1.1 1.1 1.1h22.1c.5 0 .6-.1.7-.5l2.3-12.2c.1-.4-.1-.8-.6-.8h-1.8v-4c0-.5-.2-.9-.9-.9h-12.4l-.9-1.3c-.1-.2-.3-.3-.6-.3h-7.4zm0 .8h7.4l1 1.6h13v4.1h-7.8c-.4 0-.6.2-.8.4l-.7 1.4h-10.5c-.5 0-.7.2-.8.6l-1.6 8.8V43.1l.8-1.3zm13.5 6.5h10.3l-2.3 11.9h-21.8l1.9-10.1h11l1-1.8z"/><path d="M748.4 41h30v20h-30z"/><text fill="#000" font-family="Helvetica" font-size="12" transform="translate(754.5 43.5)"><tspan x="0" y="11">src</tspan></text><path d="M722.1 41h20v20h-20z"/><path stroke="#666" d="M711.1 26v25h8m13 35v45h10"/><path fill="#B3B3B3" fill-rule="nonzero" d="M765.6 301h70v20h-70z"/><text fill="#FFF" font-family="Helvetica" font-size="12" transform="translate(770.5 303.5)"><tspan x="0" y="11">cool.png</tspan></text><path fill="#FFF" fill-opacity=".5" fill-rule="nonzero" d="M742.6 301h20v20h-20z"/><path d="M765.3 121h70v20h-70z"/><text fill="#000" font-family="Helvetica" font-size="12" transform="translate(766.5 123.5)"><tspan x="0" y="11">styles.scss</tspan></text><path fill="#F0F0F0" fill-rule="nonzero" d="M751.6 141h203.7v20H751.6z"/><text fill="#000" font-family="CourierNewPSMT, Courier New" font-size="9" transform="translate(757.5 147.5)"><tspan x="0" y="7">@import "subdir/partial";</tspan></text><path d="M782.2 201h80v20h-80z"/><text fill="#000" font-family="Helvetica" font-size="12" transform="translate(787.5 203.5)"><tspan x="0" y="11">_partial.scss</tspan></text><path fill="#F0F0F0" fill-rule="nonzero" d="M768.5 221h203.7v40H768.5z"/><path stroke="#666" d="M762.2 281h-10v-65"/><path d="M742.2 171h26.3v20h-26.3z"/><path fill="#434445" fill-rule="nonzero" stroke="#000" d="M743.8 171c-.3 0-.5.1-.6.3l-1 1.6v17c0 .6.3 1.1 1.1 1.1h22.2c.4 0 .5-.2.6-.5l2.3-12.2c.1-.4-.1-.8-.6-.8H766v-4c0-.5-.2-.9-.9-.9h-12.4l-.9-1.3c-.1-.2-.3-.3-.6-.3h-7.4zm0 .8h7.4l1 1.6h13v4.1h-7.8c-.4 0-.6.2-.7.4l-.8 1.4h-10.5c-.5 0-.7.2-.8.6l-1.6 8.8v-15.5l.8-1.4zm13.6 6.5h10.2l-2.3 11.9h-21.8l2-10.1h10.8l1-1.8z"/><path d="M768.5 172h43v18h-43z"/><text fill="#000" font-family="Helvetica" font-size="12" transform="translate(774.5 173.5)"><tspan x="0" y="11">subdir</tspan></text><path d="M742.2 171h20v20h-20z"/><path stroke="#666" d="M762.2 211h-9v-15m-21-60v45h7"/><path d="M782.2 271h60v20h-60z"/><text fill="#000" font-family="Helvetica" font-size="12" transform="translate(787.5 273.5)"><tspan x="0" y="11">cool.png</tspan></text><path stroke="#666" d="M742.1 311h-10V187"/><path stroke="#666" stroke-dasharray="3" d="M709 141c-18 26.7-27 53.3-27 80 0 26.7 7.6 51 22.5 73.3"/><path stroke="#666" d="m708.5 300.1-6.9-3.9 5.9-3.9z"/><path d="M105.3 71h60v20h-60z"/><text fill="#000" font-family="Helvetica" font-size="12" transform="translate(110.5 73.5)"><tspan x="0" y="11">index.js</tspan></text><path fill="#F0F0F0" fill-rule="nonzero" d="M91.6 91h203.7v20H91.6z"/><text fill="#000" font-family="CourierNewPSMT, Courier New" font-size="10" transform="translate(97.5 97.5)"><tspan x="0" y="8">import 'styles.scss';</tspan></text><path stroke="#666" d="M75.3 66v15h10"/><path d="M45.3 1h26.3v20H45.3z"/><path fill="#434445" fill-rule="nonzero" stroke="#000" d="M46.9 1c-.4 0-.5.1-.6.3l-1 1.6v17c0 .6.3 1.1 1 1.1h22.2c.4 0 .5-.1.6-.5l2.4-12.2c0-.4-.2-.8-.7-.8H69v-4c0-.5-.2-.9-.8-.9H55.7L55 1.3c-.2-.2-.3-.3-.6-.3H47zm0 .8h7.3l1 1.6h13v4.1h-7.8c-.3 0-.5.2-.7.4L59 9.3H48.4c-.4 0-.6.2-.7.6L46 18.7V3.2l.9-1.4zm13.5 6.5h10.3l-2.3 11.9H46.6l1.9-10.1h10.9l1-1.8z"/><path d="M71.6 1h70v20h-70z"/><text fill="#000" font-family="Helvetica" font-size="12" transform="translate(78.5 3.5)"><tspan x="0" y="11">my-project</tspan></text><path d="M45.3 1h20v20h-20zm20 40h26.3v20H65.3z"/><path fill="#434445" fill-rule="nonzero" stroke="#000" d="M66.9 41c-.4 0-.5.1-.6.3l-1 1.6v17c0 .6.3 1.1 1 1.1h22.2c.4 0 .5-.1.6-.5l2.4-12.2c0-.4-.2-.8-.7-.8H89v-4c0-.5-.2-.9-.8-.9H75.7l-.8-1.3c-.2-.2-.3-.3-.7-.3H67zm0 .8h7.3l1 1.6h13v4.1h-7.8c-.3 0-.5.2-.7.4l-.8 1.4H68.4c-.4 0-.6.2-.7.6L66 58.7V43.1l.9-1.3zm13.5 6.5h10.3l-2.3 11.9H66.6l1.9-10.1h10.9l1-1.8z"/><path d="M91.6 41h30v20h-30z"/><text fill="#000" font-family="Helvetica" font-size="12" transform="translate(98.5 43.5)"><tspan x="0" y="11">src</tspan></text><path d="M65.3 41h20v20h-20z"/><path stroke="#666" d="M55.3 26v25h7"/><path d="M105.3 121h70v20h-70z"/><text fill="#000" font-family="Helvetica" font-size="12" transform="translate(110.5 123.5)"><tspan x="0" y="11">styles.scss</tspan></text><path fill="#F0F0F0" fill-rule="nonzero" d="M91.6 141h203.7v40H91.6z"/><path stroke="#666" d="M75.3 87v44h10"/><path d="M105.3 191h60v20h-60z"/><text fill="#000" font-family="Helvetica" font-size="12" transform="translate(110.5 193.5)"><tspan x="0" y="11">cool.png</tspan></text><path stroke="#666" d="M75.3 137v64h10"/><path stroke="#666" stroke-dasharray="3" d="M56.3 131c-10 13.3-15 25-15 35s3.3 19.5 10 28.5"/><path stroke="#666" d="m55.6 200.1-7-3.5 5.6-4.2z"/><path d="M414 71h60v20h-60z"/><text fill="#000" font-family="Helvetica" font-size="12" transform="translate(419.5 73.5)"><tspan x="0" y="11">index.js</tspan></text><path fill="#F0F0F0" fill-rule="nonzero" d="M400.3 91H604v20H400.3z"/><text fill="#000" font-family="CourierNewPSMT, Courier New" font-size="10" transform="translate(405.5 97.5)"><tspan x="0" y="8">import 'subdir/styles.scss';</tspan></text><path stroke="#666" d="M384 66v15h10"/><path d="M354 1h26.3v20H354z"/><path fill="#434445" fill-rule="nonzero" stroke="#000" d="M355.6 1c-.3 0-.5.1-.6.3l-1 1.6v17c0 .6.3 1.1 1.1 1.1h22.1c.5 0 .6-.1.7-.5l2.3-12.2c.1-.4-.1-.8-.6-.8h-1.8v-4c0-.5-.2-.9-.9-.9h-12.4l-.9-1.3c-.1-.2-.3-.3-.6-.3h-7.4zm0 .8h7.4l1 1.6h13v4.1h-7.8c-.4 0-.6.2-.7.4l-.8 1.4h-10.5c-.5 0-.7.2-.8.6l-1.6 8.8V3.2l.8-1.4zm13.5 6.5h10.3l-2.3 11.9h-21.8l2-10.1H368l1-1.8z"/><path d="M380.3 1h70v20h-70z"/><text fill="#000" font-family="Helvetica" font-size="12" transform="translate(387.5 3.5)"><tspan x="0" y="11">my-project</tspan></text><path d="M354 1h20v20h-20zm20 40h26.3v20H374z"/><path fill="#434445" fill-rule="nonzero" stroke="#000" d="M375.6 41c-.3 0-.5.1-.6.3l-1 1.6v17c0 .6.3 1.1 1.1 1.1h22.1c.5 0 .6-.1.7-.5l2.3-12.2c.1-.4-.1-.8-.6-.8h-1.8v-4c0-.5-.2-.9-.9-.9h-12.4l-.9-1.3c-.1-.2-.3-.3-.6-.3h-7.4zm0 .8h7.4l1 1.6h13v4.1h-7.8c-.4 0-.6.2-.7.4l-.8 1.4h-10.5c-.5 0-.7.2-.8.6l-1.6 8.8V43.1l.8-1.3zm13.5 6.5h10.3l-2.3 11.9h-21.8l2-10.1H388l1-1.8z"/><path d="M400.3 41h30v20h-30z"/><text fill="#000" font-family="Helvetica" font-size="12" transform="translate(406.5 43.5)"><tspan x="0" y="11">src</tspan></text><path d="M374 41h20v20h-20z"/><path stroke="#666" d="M365 26v25h6"/><path d="M434 151h70v20h-70z"/><text fill="#000" font-family="Helvetica" font-size="12" transform="translate(439.5 153.5)"><tspan x="0" y="11">styles.scss</tspan></text><path fill="#F0F0F0" fill-rule="nonzero" d="M420.3 171H624v40H420.3z"/><path stroke="#666" d="M414 231h-10v-65"/><path d="M394 121h26.3v20H394z"/><path fill="#434445" fill-rule="nonzero" stroke="#000" d="M395.6 121c-.3 0-.5.1-.6.3l-1 1.6v17c0 .6.3 1.1 1.1 1.1h22.1c.5 0 .6-.2.7-.5l2.3-12.2c.1-.4-.1-.8-.6-.8h-1.8v-4c0-.5-.2-.9-.9-.9h-12.4l-.9-1.3c-.1-.2-.3-.3-.6-.3h-7.4zm0 .8h7.4l1 1.6h13v4.1h-7.8c-.4 0-.6.2-.7.4l-.8 1.4h-10.5c-.5 0-.7.2-.8.6l-1.6 8.8v-15.5l.8-1.4zm13.5 6.5h10.3l-2.3 11.9h-21.8l2-10.1H408l1-1.8z"/><path d="M420.3 121h50v20h-50z"/><text fill="#000" font-family="Helvetica" font-size="12" transform="translate(425.5 123.5)"><tspan x="0" y="11">subdir</tspan></text><path d="M394 121h20v20h-20z"/><path stroke="#666" d="M414 161h-9v-15m-21-60v45h7"/><path d="M434 221h60v20h-60z"/><text fill="#000" font-family="Helvetica" font-size="12" transform="translate(0 1)"><tspan x="439.5" y="233.5">cool.png</tspan></text><path stroke="#666" stroke-dasharray="3" d="M386.3 161c-10 13.3-15 25-15 35s3.3 19.5 10 28.5"/><path stroke="#666" d="m385.6 230.1-7-3.5 5.6-4.2z"/><g fill="#000" font-family="CourierNewPSMT, Courier New" font-size="9"><text transform="translate(96 147)"><tspan x="0" y="7">.cool {</tspan> <tspan x="0" y="27">}</tspan></text><text transform="translate(96 147)"><tspan x="10" y="17">background-image: url(cool.png);</tspan></text></g><g fill="#000" font-family="CourierNewPSMT, Courier New" font-size="9"><text transform="translate(424 177)"><tspan x="0" y="7">.cool {</tspan> <tspan x="0" y="27">}</tspan></text><text transform="translate(424 177)"><tspan x="10" y="17">background-image: url(cool.png);</tspan></text></g><g fill="#000" font-family="CourierNewPSMT, Courier New" font-size="9"><text transform="translate(775 228)"><tspan x="0" y="7">.cool {</tspan> <tspan x="0" y="27">}</tspan></text><text transform="translate(775 228)"><tspan x="10" y="17">background-image: url(cool.png);</tspan></text></g><path fill="#000" fill-rule="nonzero" d="M100.8 81.7v.9l-.1.3-.3.1h-8.8l-.3-.1-.1-.3v-.9l.1-.2.3-.2h8.8c.1 0 .2 0 .3.2l.1.2zm-3.1-3.3v1.1l-.3.2h-6l-.1-.2-.1-.3v-1.1l.3-.1h6l.1.1.1.3zm-8.1 8h12.8v-10h-5.2c-.3 0-.6-.2-.9-.4-.2-.3-.3-.6-.3-1v-5.3h-6.4v16.6zm8-11.7h3.7l-3.7-4v4zm6.4 1.6v10.4c0 .4-.1.7-.3 1l-.9.3H89.2a1 1 0 0 1-.8-.4c-.3-.2-.4-.5-.4-.9V69.2c0-.3.1-.6.4-.8.2-.3.5-.4.8-.4H96c.3 0 .7 0 1.1.3.4.1.7.3 1 .6l5 5.3a3.1 3.1 0 0 1 .8 2.1zm304.8 5.5v.8l-.1.3-.3.1h-8.8l-.3-.1-.1-.3v-.8l.1-.3.3-.2h8.8c.1 0 .2 0 .3.2l.1.3zm-3.1-3.4v1.1l-.3.2h-6l-.1-.2-.1-.2v-1.2l.3-.1h6l.1.1.1.3zm-8.1 8h12.8v-10h-5.2c-.3 0-.6-.2-.8-.4-.3-.3-.4-.6-.4-1v-5.3h-6.4v16.6zm8-11.7h3.7l-3.7-4v4zm6.4 1.6v10.5a1.1 1.1 0 0 1-1.2 1.3l-13.6-.1c-.3 0-.6-.1-.9-.4-.2-.2-.3-.5-.3-.8V69.3c0-.4.1-.7.3-1l.9-.3h6.8c.3 0 .7 0 1.1.3.4.1.7.3 1 .6l5 5.3c.3.2.5.6.6 1l.3 1.1zm345.8 55.5v.8l-.1.3-.3.1h-8.8l-.3-.1-.1-.3v-.9l.1-.2.3-.2h8.8c.1 0 .2 0 .3.2l.1.2zm-3.1-3.4v1.1l-.3.2h-6l-.1-.2-.1-.2v-1.2l.3-.1h6l.1.1.1.3zm-8.1 8h12.8v-10h-5.2c-.3 0-.6-.2-.9-.4-.2-.3-.3-.6-.3-1v-5.3h-6.4v16.6zm8-11.7h3.7l-3.7-4v4zm6.4 1.6v10.5c0 .3-.1.6-.4.8a1 1 0 0 1-.8.4h-13.6c-.3 0-.6-.1-.9-.4-.2-.2-.3-.5-.3-.9v-17.4c0-.4.1-.7.3-1l.9-.3h6.8c.3 0 .7 0 1.1.3.4.1.7.3 1 .6l5 5.3c.3.2.5.6.6 1l.3 1.1zm-3.2-44.5v.8l-.1.3-.3.1h-8.8l-.3-.1-.1-.3v-.8l.1-.3.3-.2h8.8c.1 0 .2 0 .3.2l.1.3zm-3.1-3.4v1.1l-.3.2h-6l-.1-.2-.1-.3v-1.1l.3-.1h6l.1.1.1.3zm-8.1 8h12.8v-10h-5.2c-.3 0-.6-.2-.9-.4-.2-.3-.3-.6-.3-1v-5.3h-6.4v16.6zm8-11.7h3.7l-3.7-4v4zm6.4 1.6v10.5c0 .3-.1.6-.4.8a1 1 0 0 1-.8.4h-13.6c-.3 0-.6-.1-.9-.4-.2-.2-.3-.5-.3-.8V69.3c0-.4.1-.7.3-1l.9-.3h6.8c.3 0 .7 0 1.1.3.4.1.7.3 1 .6l5 5.3c.3.2.5.6.6 1l.3 1.1zm-660.2 55.5v.8l-.1.3-.3.1h-8.8l-.3-.1-.1-.3v-.9l.1-.2.3-.2h8.8c.1 0 .2 0 .3.2l.1.2zm-3.1-3.4v1.1l-.3.2h-6l-.1-.2-.1-.2v-1.2l.3-.1h6l.1.1.1.3zm-8.1 8h12.8v-10h-5.2c-.3 0-.6-.2-.9-.4-.2-.3-.3-.6-.3-1v-5.3h-6.4v16.6zm8-11.7h3.7l-3.7-4v4zm6.4 1.6v10.5a1.1 1.1 0 0 1-1.2 1.3l-13.6-.1a1 1 0 0 1-.8-.4c-.3-.2-.4-.5-.4-.9v-17.4c0-.4.1-.7.4-1 .2-.2.5-.3.8-.3H96c.3 0 .7 0 1.1.3.4.1.7.3 1 .6l5 5.3a3.1 3.1 0 0 1 .8 2.1zm-3.2 76.5v.8l-.1.3-.3.1h-8.8l-.3-.1-.1-.3v-.9l.1-.2.3-.2h8.8c.1 0 .2 0 .3.2l.1.2zm-3.1-3.4v1.1l-.3.2h-6l-.1-.2-.1-.2v-1.2l.3-.1h6l.1.1.1.3zm-8.1 8h12.8v-10h-5.2c-.3 0-.6-.2-.9-.4-.2-.3-.3-.6-.3-1v-5.3h-6.4v16.6zm8-11.7h3.7l-3.7-4v4zm6.4 1.6v10.4c0 .4-.1.7-.3 1l-.9.3H89.2a1 1 0 0 1-.8-.4c-.3-.2-.4-.5-.4-.9v-17.4c0-.4.1-.7.4-1 .2-.2.5-.3.8-.3H96c.3 0 .7 0 1.1.3.4.1.7.3 1 .6l5 5.3a3.1 3.1 0 0 1 .8 2.1zm324.8-35.5v.8l-.1.3-.3.1h-8.8l-.3-.1-.1-.3v-.9l.1-.2.3-.2h8.8c.1 0 .2 0 .3.2l.1.2zm-3.1-3.4v1.1l-.3.2h-6l-.1-.2-.1-.2v-1.2l.3-.1h6l.1.1.1.3zm-8.1 8h12.8v-10h-5.2c-.3 0-.6-.2-.8-.4-.3-.3-.4-.6-.4-1v-5.3h-6.4v16.6zm8-11.7h3.7l-3.7-4v4zm6.4 1.6v10.4c0 .4-.1.7-.3 1l-.9.3h-13.6c-.3 0-.6-.1-.9-.4-.2-.2-.3-.5-.3-.9v-17.4c0-.4.1-.7.3-1l.9-.3h6.8c.3 0 .7 0 1.1.3.4.1.7.3 1 .6l5 5.3c.3.2.5.6.6 1l.3 1.1zm-3.2 76.5v.8l-.1.3-.3.1h-8.8l-.3-.1-.1-.3v-.9l.1-.2.3-.2h8.8c.1 0 .2 0 .3.2l.1.2zm-3.1-3.4v1.1l-.3.2h-6l-.1-.2-.1-.2v-1.2l.3-.1h6l.1.1.1.3zm-8.1 8h12.8v-10h-5.2c-.3 0-.6-.2-.8-.4-.3-.3-.4-.6-.4-1v-5.3h-6.4v16.6zm8-11.7h3.7l-3.7-4v4zm6.4 1.6v10.4c0 .4-.1.7-.3 1l-.9.3h-13.6c-.3 0-.6-.1-.9-.4-.2-.2-.3-.5-.3-.9v-17.4c0-.4.1-.7.3-1l.9-.3h6.8c.3 0 .7 0 1.1.3.4.1.7.3 1 .6l5 5.3c.3.2.5.6.6 1l.3 1.1zm345.8-15.5v.8l-.1.3-.3.1h-8.8l-.3-.1-.1-.3v-.8l.1-.3.3-.2h8.8c.1 0 .2 0 .3.2l.1.3zm-3.1-3.4v1.1l-.3.2h-6l-.1-.2-.1-.2v-1.2l.3-.1h6l.1.1.1.3zm-8.1 8h12.8v-10h-5.2c-.3 0-.6-.2-.9-.4-.2-.3-.3-.6-.3-1v-5.3h-6.4v16.6zm8-11.7h3.7l-3.7-4v4zm6.4 1.6v10.5c0 .3-.1.6-.4.8a1 1 0 0 1-.8.4h-13.6c-.3 0-.6-.1-.9-.4-.2-.2-.3-.5-.3-.8v-17.5c0-.4.1-.7.3-1l.9-.3h6.8c.3 0 .7 0 1.1.3.4.1.7.3 1 .6l5 5.3c.3.2.5.6.6 1l.3 1.1zm-3.2 76.5v.8l-.1.3-.3.1h-8.8l-.3-.1-.1-.3v-.9l.1-.2.3-.2h8.8c.1 0 .2 0 .3.2l.1.3zm-3.1-3.4v1.1l-.3.2h-6l-.1-.2-.1-.3v-1.1l.3-.1h6l.1.1.1.3zm-8.1 8h12.8v-10h-5.2c-.3 0-.6-.2-.9-.4-.2-.3-.3-.6-.3-1v-5.3h-6.4v16.6zm8-11.7h3.7l-3.7-4v4zm6.4 1.6v10.4c0 .4-.1.7-.4 1-.2.2-.5.3-.8.3h-13.6c-.3 0-.6-.1-.9-.4-.2-.2-.3-.5-.3-.9v-17.5a1.1 1.1 0 0 1 1.2-1.3l6.8.1c.3 0 .7 0 1.1.3.4.1.7.3 1 .6l5 5.3c.3.2.5.6.6 1l.3 1.1z"/><path fill="#B3B3B3" fill-rule="nonzero" d="M757.8 314.8v.8l-.1.3-.3.1h-8.8l-.3-.1-.1-.3v-.9l.1-.2.3-.2h8.8c.1 0 .2 0 .3.2l.1.3zm-3.1-3.4v1.1l-.3.2h-6l-.1-.2-.1-.3v-1.1l.3-.1h6l.1.1.1.3zm-8.1 8h12.8v-10h-5.2c-.3 0-.6-.2-.9-.4-.2-.3-.3-.6-.3-1v-5.3h-6.4v16.6zm8-11.7h3.7l-3.7-4v4zm6.4 1.6v10.4c0 .4-.1.7-.4 1-.2.2-.5.3-.8.3h-13.6c-.3 0-.6-.1-.9-.4-.2-.2-.3-.5-.3-.9v-17.5a1.1 1.1 0 0 1 1.2-1.3l6.8.1c.3 0 .7 0 1.1.3.4.1.7.3 1 .6l5 5.3c.3.2.5.6.6 1l.3 1.1z"/><g fill-rule="nonzero"><path fill="#FFF" d="m11 217 11 6.2v12.6L11 242l-11-6.2v-12.6z"/><path fill="#8ED6FB" d="m20.4 236-8.5 5v-4l5.3-3 3.2 2zm.6-.6v-10.5l-3.1 1.8v6.8l3.1 1.9zm-18.4.6 8.5 5v-4l-5.3-3-3.2 2zm-.6-.6v-10.5l3.1 1.8v6.8L2 235.4zm.4-11.2L11 219v3.8L5.5 226l-3.1-1.8zm18.2 0L12 219v3.8l5.6 3.2 3.1-1.8z"/><path fill="#1C78C0" d="M11.6 236 6 233v-6.2l5.6 3.2v6zm.8 0 5.6-3v-6.2l-5.6 3.2v6zm-6-9.9L12 223l5.6 3.1-5.6 3.2-5.6-3.2z"/><path fill="#1A1C1C" d="M33.8 233.3H36l2.5-7.4h-2.3l-1.5 5.3-1.5-5.3h-2l-1.6 5.3-1.4-5.3H26l2.4 7.4h2.4l1.5-4.8 1.5 4.8zm4.9-3.7c0 2.3 1.6 4 4.2 4a4 4 0 0 0 3.4-1.7l-1.4-1c-.2.3-.8.9-2 .9-1.1 0-2-.7-2-1.7h5.7v-.4c0-2.5-1.5-4-4-4-2.3 0-4 1.7-4 4zm2.2-.8c.1-.9.8-1.5 1.8-1.5s1.7.6 1.7 1.5h-3.5zm6.5 4.5h2v-.7c.2.2 1 1 2.4 1 2.3 0 4-1.7 4-4s-1.6-4-4-4c-1.3 0-2.1.8-2.3 1V223h-2.1v10.3zm2-3.7c0-1.4 1-2.2 2.1-2.2 1.2 0 2 1 2 2.2 0 1.3-.8 2.2-2 2.2-1.3 0-2-1-2-2.2zm7.2 6.4h2v-3.4c.3.2 1 1 2.5 1 2.3 0 3.8-1.7 3.8-4s-1.6-4-4-4c-1.3 0-2.1.8-2.3 1v-.7h-2V236zm2-6.4c0-1.2.8-2.2 2-2.2 1.3 0 2.2.8 2.2 2.2 0 1.3-.9 2.2-2.1 2.2-1.2 0-2-.8-2-2.2zm6.7 1.4c0 1.6 1.4 2.5 3 2.5 1 0 1.6-.2 2-.7l.1.5h1.9v-4.7c0-1.7-.8-3-3.4-3-1.2 0-2.4.5-3.1 1l.8 1.3a5 5 0 0 1 2.1-.5c1 0 1.5.4 1.5 1v.6c-.3-.2-1-.5-1.8-.5-1.9 0-3.1 1-3.1 2.5zm2.1 0c0-.7.6-1 1.4-1 .8 0 1.4.3 1.4 1 0 .6-.6 1-1.4 1-.8 0-1.4-.4-1.4-1zm10 .8c-1.3 0-2.2-1-2.2-2.2 0-1.2.8-2.2 2.2-2.2 1 0 1.5.4 1.9.7l.6-1.6c-.5-.4-1.4-.8-2.6-.8-2.4 0-4.3 1.6-4.3 4 0 2.2 1.8 3.8 4.4 3.8 1.1 0 2-.4 2.5-.8l-.6-1.6a3 3 0 0 1-1.8.7zm3.3 1.5h2.1v-3.8l2.7 3.8H88l-3-4 2.8-3.4h-2.4l-2.6 3.1v-6h-2.1v10.3z"/></g><g fill-rule="nonzero"><path fill="#FFF" d="m339 249 11 6.2v12.6l-11 6.2-11-6.2v-12.6z"/><path fill="#8ED6FB" d="m348.4 268-8.5 5v-4l5.3-3 3.2 2zm.6-.6v-10.5l-3.1 1.8v6.8l3.1 1.9zm-18.4.6 8.5 5v-4l-5.3-3-3.2 2zm-.6-.6v-10.5l3.1 1.8v6.8l-3.1 1.9zm.4-11.2 8.7-5.2v3.8l-5.6 3.2-3.1-1.8zm18.2 0L340 251v3.8l5.6 3.2 3.1-1.8z"/><path fill="#1C78C0" d="m339.6 268-5.6-3v-6.2l5.6 3.2v6zm.8 0 5.6-3v-6.2l-5.6 3.2v6zm-6-9.9 5.6-3.1 5.6 3.1-5.6 3.2-5.6-3.2z"/><path fill="#1A1C1C" d="M361.8 265.3h2.3l2.5-7.4h-2.3l-1.5 5.3-1.5-5.3h-2l-1.6 5.3-1.4-5.3H354l2.4 7.4h2.4l1.5-4.8 1.5 4.8zm4.9-3.7c0 2.3 1.6 4 4.2 4a4 4 0 0 0 3.4-1.7l-1.4-1c-.2.3-.8.9-2 .9-1.1 0-2-.7-2-1.7h5.7v-.4c0-2.5-1.5-4-4-4-2.3 0-4 1.7-4 4zm2.2-.8c.1-.9.8-1.5 1.8-1.5s1.7.6 1.7 1.5h-3.5zm6.5 4.5h2v-.7c.2.2 1 1 2.4 1 2.3 0 4-1.7 4-4s-1.6-4-4-4c-1.3 0-2.1.8-2.3 1V255h-2.1v10.3zm2-3.7c0-1.4 1-2.2 2.1-2.2 1.2 0 2 1 2 2.2 0 1.3-.8 2.2-2 2.2-1.3 0-2-1-2-2.2zm7.2 6.4h2v-3.4c.3.2 1 1 2.5 1 2.3 0 3.8-1.7 3.8-4s-1.6-4-4-4c-1.3 0-2.1.8-2.3 1v-.7h-2V268zm2-6.4c0-1.2.8-2.2 2-2.2 1.3 0 2.2.8 2.2 2.2 0 1.3-.9 2.2-2.1 2.2-1.2 0-2-.8-2-2.2zm6.7 1.4c0 1.6 1.4 2.5 3 2.5 1 0 1.6-.2 2-.7l.1.5h1.9v-4.7c0-1.7-.8-3-3.4-3-1.2 0-2.4.5-3.1 1l.8 1.3a5 5 0 0 1 2.1-.5c1 0 1.5.4 1.5 1v.6c-.3-.2-1-.5-1.8-.5-1.9 0-3.1 1-3.1 2.5zm2.1 0c0-.7.6-1 1.4-1 .8 0 1.4.3 1.4 1 0 .6-.6 1-1.4 1-.8 0-1.4-.4-1.4-1zm10 .8c-1.3 0-2.2-1-2.2-2.2 0-1.2.8-2.2 2.2-2.2 1 0 1.5.4 1.9.7l.6-1.6c-.5-.4-1.4-.8-2.6-.8-2.4 0-4.3 1.6-4.3 4 0 2.2 1.8 3.8 4.4 3.8 1.1 0 2-.4 2.5-.8l-.6-1.6a3 3 0 0 1-1.8.7zm3.3 1.5h2.1v-3.8l2.7 3.8h2.5l-3-4 2.8-3.4h-2.4l-2.6 3.1v-6h-2.1v10.3z"/></g><g fill-rule="nonzero"><path fill="#FFF" d="m667 331 11 6.2v12.6l-11 6.2-11-6.2v-12.6z"/><path fill="#8ED6FB" d="m676.4 350-8.5 5v-4l5.3-3 3.2 2zm.6-.6v-10.5l-3.1 1.8v6.8l3.1 1.9zm-18.4.6 8.5 5v-4l-5.3-3-3.2 2zm-.6-.6v-10.5l3.1 1.8v6.8l-3.1 1.9zm.4-11.2 8.7-5.2v3.8l-5.6 3.2-3.1-1.8zm18.2 0L668 333v3.8l5.6 3.2 3.1-1.8z"/><path fill="#1C78C0" d="m667.6 350-5.6-3v-6.2l5.6 3.2v6zm.8 0 5.6-3v-6.2l-5.6 3.2v6zm-6-9.9 5.6-3.1 5.6 3.1-5.6 3.2-5.6-3.2z"/><path fill="#1A1C1C" d="M689.8 347.3h2.3l2.5-7.4h-2.3l-1.5 5.3-1.5-5.3h-2l-1.6 5.3-1.4-5.3H682l2.4 7.4h2.4l1.5-4.8 1.5 4.8zm4.9-3.7c0 2.3 1.6 4 4.2 4a4 4 0 0 0 3.4-1.7l-1.4-1c-.2.3-.8.9-2 .9-1.1 0-2-.7-2-1.7h5.7v-.4c0-2.5-1.5-4-4-4-2.3 0-4 1.7-4 4zm2.2-.8c.1-.9.8-1.5 1.8-1.5s1.7.6 1.7 1.5h-3.5zm6.5 4.5h2v-.7c.2.2 1 1 2.4 1 2.3 0 4-1.7 4-4s-1.6-4-4-4c-1.3 0-2.1.8-2.3 1V337h-2.1v10.3zm2-3.7c0-1.4 1-2.2 2.1-2.2 1.2 0 2 1 2 2.2 0 1.3-.8 2.2-2 2.2-1.3 0-2-1-2-2.2zm7.2 6.4h2v-3.4c.3.2 1 1 2.5 1 2.3 0 3.8-1.7 3.8-4s-1.6-4-4-4c-1.3 0-2.1.8-2.3 1v-.7h-2V350zm2-6.4c0-1.2.8-2.2 2-2.2 1.3 0 2.2.8 2.2 2.2 0 1.3-.9 2.2-2.1 2.2-1.2 0-2-.8-2-2.2zm6.7 1.4c0 1.6 1.4 2.5 3 2.5 1 0 1.6-.2 2-.7l.1.5h1.9v-4.7c0-1.7-.8-3-3.4-3-1.2 0-2.4.5-3.1 1l.8 1.3a5 5 0 0 1 2.1-.5c1 0 1.5.4 1.5 1v.6c-.3-.2-1-.5-1.8-.5-1.9 0-3.1 1-3.1 2.5zm2.1 0c0-.7.6-1 1.4-1 .8 0 1.4.3 1.4 1 0 .6-.6 1-1.4 1-.8 0-1.4-.4-1.4-1zm10 .8c-1.3 0-2.2-1-2.2-2.2 0-1.2.8-2.2 2.2-2.2 1 0 1.5.4 1.9.7l.6-1.6c-.5-.4-1.4-.8-2.6-.8-2.4 0-4.3 1.6-4.3 4 0 2.2 1.8 3.8 4.4 3.8 1.1 0 2-.4 2.5-.8l-.6-1.6a3 3 0 0 1-1.8.7zm3.3 1.5h2.1v-3.8l2.7 3.8h2.5l-3-4 2.8-3.4h-2.4l-2.6 3.1v-6h-2.1v10.3z"/></g><path fill="#41AD49" fill-rule="nonzero" d="M175 185a16 16 0 1 1 0 32 16 16 0 0 1 0-32zm8.2 8-11 11.3-5.4-5.5-2.8 2.8 8.2 8.4 13.8-14.2-2.8-2.8zM504 214a16 16 0 1 1 0 32 16 16 0 0 1 0-32zm8.2 8-11 11.3-5.4-5.5-2.8 2.8 8.2 8.4 13.8-14.2-2.8-2.8z"/><path fill="#E44061" fill-rule="nonzero" d="M855 295a16 16 0 1 1 0 32 16 16 0 0 1 0-32zm6.7 6-6.7 6.7-6.6-6.6-3.6 3.5 6.7 6.6-6.7 6.7 3.5 3.5 6.7-6.6 6.6 6.6 3.6-3.5-6.7-6.7 6.7-6.6-3.5-3.6z"/></g></symbol><symbol viewBox="0 0 360 650" id="node_modules--resolve-url-loader--docs--detailed-problem" xmlns="http://www.w3.org/2000/svg"><g fill="none" fill-rule="evenodd"><path d="M110.1 71h60v20h-60z"/><text fill="#000" font-family="Helvetica" font-size="12" transform="translate(111.5 73.5)"><tspan x="0" y="11">index.js</tspan></text><path stroke="#666" d="M80.1 63v18h10"/><path fill="#434445" fill-rule="nonzero" stroke="#000" d="M51.7 1c-.3 0-.5.1-.6.3l-1 1.6v17c0 .6.3 1.1 1.1 1.1h22.1c.5 0 .6-.1.7-.5l2.3-12.2c.1-.4-.1-.8-.6-.8h-1.8v-4c0-.5-.2-.9-.9-.9H60.6l-.9-1.3c-.1-.2-.3-.3-.6-.3h-7.4zm0 .8h7.4l1 1.6h13v4.1h-7.8c-.4 0-.6.2-.8.4l-.7 1.4H53.3c-.5 0-.7.2-.8.6L51 18.7V3.2l.8-1.4zm13.5 6.5h10.3l-2.3 11.9H51.4l1.9-10.1h11l1-1.8z"/><path d="M76.4 1h70v20h-70z"/><text fill="#000" font-family="Helvetica" font-size="12" transform="translate(81.5 3.5)"><tspan x="0" y="11">my-project</tspan></text><path d="M70.1 41h26.3v20H70.1z"/><path fill="#434445" fill-rule="nonzero" stroke="#000" d="M71.7 41c-.3 0-.5.1-.6.3l-1 1.6v17c0 .6.3 1.1 1.1 1.1h22.1c.5 0 .6-.1.7-.5l2.3-12.2c.1-.4-.1-.8-.6-.8h-1.8v-4c0-.5-.2-.9-.9-.9H80.6l-.9-1.3c-.1-.2-.3-.3-.6-.3h-7.4zm0 .8h7.4l1 1.6h13v4.1h-7.8c-.4 0-.6.2-.8.4l-.7 1.4H73.3c-.5 0-.7.2-.8.6L71 58.7V43.1l.8-1.3zm13.5 6.5h10.3l-2.3 11.9H71.4l1.9-10.1h11l1-1.8z"/><path d="M96.4 41h30v20h-30z"/><text fill="#000" font-family="Helvetica" font-size="12" transform="translate(100 44)"><tspan x="0" y="11">src</tspan></text><path stroke="#666" d="M60.1 23v28h8m12 35v45h10"/><path d="M113.3 121h70v20h-70z"/><text fill="#000" font-family="Helvetica" font-size="12" transform="translate(114.5 123.5)"><tspan x="0" y="11">styles.scss</tspan></text><path fill="#F0F0F0" fill-rule="nonzero" d="M99.6 141h203.7v20H99.6z"/><text fill="#000" font-family="CourierNewPSMT, Courier New" font-size="9" transform="translate(105.5 147.5)"><tspan x="0" y="7">@import "foo/partial";</tspan></text><path d="M130.2 201h80v20h-80z"/><text fill="#000" font-family="Helvetica" font-size="12" transform="translate(131.5 203.5)"><tspan x="0" y="11">_partial.scss</tspan></text><path fill="#F0F0F0" fill-rule="nonzero" d="M116.5 221h203.7v60H116.5z"/><text fill="#000" font-family="CourierNewPSMT, Courier New" font-size="9" transform="translate(123 227)"><tspan x=".7" y="7.5">@import "bar/mixins";</tspan>  <tspan x=".7" y="27.5">.cool {</tspan>  <tspan x=".7" y="47.5">}</tspan></text><text fill="#000" font-family="CourierNewPSMT, Courier New" font-size="9" transform="translate(138 258)"><tspan x="0" y="7">@include cool-background-image;</tspan></text><path d="M90.2 171h26.3v20H90.2z"/><path fill="#434445" fill-rule="nonzero" stroke="#000" d="M91.8 171c-.3 0-.5.1-.6.3l-1 1.6v17c0 .6.3 1.1 1.1 1.1h22.2c.4 0 .5-.2.6-.5l2.3-12.2c.1-.4-.1-.8-.6-.8H114v-4c0-.5-.2-.9-.8-.9h-12.5l-.9-1.3c-.1-.2-.3-.3-.6-.3h-7.4zm0 .8h7.4l1 1.6h13v4.1h-7.8c-.4 0-.6.2-.7.4l-.8 1.4H93.4c-.5 0-.7.2-.8.6l-1.6 8.8v-15.5l.8-1.4zm13.5 6.5h10.3l-2.3 11.9H91.5l2-10.1h10.8l1-1.8z"/><path d="M116.5 171h40v20h-40z"/><text fill="#000" font-family="Helvetica" font-size="12" transform="translate(120.5 173.5)"><tspan x="0" y="11">foo</tspan></text><path stroke="#666" d="M110.2 211h-10v-18m-20-57v45h8M108 301h-8v-84"/><path d="M110 291h26.3v20H110z"/><path fill="#434445" fill-rule="nonzero" stroke="#000" d="M111.6 291c-.3 0-.5.1-.6.3l-1 1.6v17c0 .6.3 1.1 1.1 1.1h22.2c.4 0 .5-.1.6-.5l2.3-12.2c.1-.4-.1-.8-.6-.8h-1.8v-4c0-.5-.2-.9-.9-.9h-12.4l-.9-1.3c-.1-.2-.3-.3-.6-.3h-7.4zm0 .8h7.4l1 1.6h13v4.1h-7.8c-.4 0-.6.2-.7.4l-.8 1.4h-10.5c-.5 0-.7.2-.8.6l-1.6 8.8v-15.6l.8-1.3zm13.6 6.5h10.2l-2.3 11.9h-21.8l2-10.1H124l1-1.8z"/><path d="M136.3 291h40v20h-40z"/><text fill="#000" font-family="Helvetica" font-size="12" transform="translate(139.5 293.5)"><tspan x="0" y="11">bar</tspan></text><path d="M149.5 321h80v20h-80z"/><text fill="#000" font-family="Helvetica" font-size="12" transform="translate(150.5 323.5)"><tspan x="0" y="11">_mixins.scss</tspan></text><path fill="#F0F0F0" fill-rule="nonzero" d="M135.8 341H350v60H135.8z"/><path stroke="#666" d="M129.5 331h-10v-18m9.5 108h-9v-84"/><path d="M130.5 411h26.3v20h-26.3z"/><path fill="#434445" fill-rule="nonzero" stroke="#000" d="M132 411c-.2 0-.4.1-.5.3l-1 1.6v17c0 .6.3 1.1 1 1.1h22.2c.5 0 .6-.1.6-.5l2.4-12.2c0-.4-.1-.8-.6-.8h-1.8v-4c0-.5-.3-.9-.9-.9H141l-.8-1.3c-.1-.2-.3-.3-.6-.3H132zm.1.8h7.4l1 1.6h13v4.1h-7.8c-.4 0-.6.2-.8.4l-.8 1.4h-10.5c-.4 0-.6.2-.7.6l-1.6 8.8v-15.6l.8-1.3zm13.5 6.5H156l-2.3 11.9h-21.8l1.9-10.1h11l1-1.8z"/><path d="M156.8 411h30v20h-30z"/><text fill="#000" font-family="Helvetica" font-size="12" transform="translate(160.5 413.5)"><tspan x="0" y="11">baz</tspan></text><path d="M169.9 441h100v20h-100z"/><text fill="#000" font-family="Helvetica" font-size="12" transform="translate(171.5 443.5)"><tspan x="0" y="11">_functions.scss</tspan></text><path fill="#F0F0F0" fill-rule="nonzero" d="M156.3 461h203.8v40H156.3z"/><text fill="#000" font-family="CourierNewPSMT, Courier New" font-size="9" transform="translate(161.5 467.5)"><tspan x="0" y="7">@function get-url($temp) {</tspan>  <tspan x="0" y="27">}</tspan></text><text fill="#000" font-family="CourierNewPSMT, Courier New" font-size="9" transform="translate(178 478)"><tspan x="0" y="7">@return url(#($temp).png)</tspan></text><path stroke="#666" d="M149.9 451H140l-.1-18m10.1 88h-10v-65"/><path d="M170 511h60v20h-60z"/><text fill="#000" font-family="Helvetica" font-size="12" transform="translate(171.5 513.5)"><tspan x="0" y="11">cool.png</tspan></text><path stroke="#666" d="M130 551h-10V426"/><path d="M150 541h60v20h-60z"/><text fill="#000" font-family="Helvetica" font-size="12" transform="translate(151.5 543.5)"><tspan x="0" y="11">cool.png</tspan></text><path stroke="#666" d="M109.7 581H100V306"/><path d="M129.7 571h60v20h-60z"/><text fill="#000" font-family="Helvetica" font-size="12" transform="translate(130.5 573.5)"><tspan x="0" y="11">cool.png</tspan></text><path fill="#B3B3B3" fill-rule="nonzero" d="M111.7 600h70v20h-70z"/><text fill="#FFF" font-family="Helvetica" font-size="12" transform="translate(116.5 602.5)"><tspan x="0" y="11">cool.png</tspan></text><path fill="#FFF" fill-opacity=".5" fill-rule="nonzero" d="M89.7 600h20v20h-20z"/><path stroke="#666" d="M90 610H80V186"/><path stroke="#666" stroke-dasharray="3" d="M59 141C20.3 207.7 1 281 1 361s18.2 157.6 54.5 232.7"/><path stroke="#666" d="m58.5 600-6.2-4.8 6.3-3z"/><path fill="#F0F0F0" fill-rule="nonzero" d="M100 91h203.7v20H100z"/><text fill="#000" font-family="CourierNewPSMT, Courier New" font-size="10" transform="translate(105 96)"><tspan x="0" y="8">import 'foo/styles.scss';</tspan></text><path fill="#000" fill-rule="nonzero" d="M104.8 82.7v.9l-.1.3-.3.1h-8.8l-.3-.1-.1-.3v-.9l.1-.2.3-.2h8.8c.1 0 .2 0 .3.2l.1.2zm-3.1-3.3v1.1l-.3.2h-6l-.1-.2-.1-.3v-1.1l.3-.1h6l.1.1.1.3zm-8.1 8h12.8v-10h-5.2c-.3 0-.6-.2-.9-.4-.2-.3-.3-.6-.3-1v-5.3h-6.4v16.6zm8-11.7h3.7l-3.7-4v4zm6.4 1.6v10.4c0 .4-.1.7-.3 1l-.9.3H93.2c-.3 0-.6-.1-.8-.4-.3-.2-.4-.5-.4-.9V70.2c0-.3.1-.6.4-.8.2-.3.5-.4.8-.4h6.8c.3 0 .7 0 1.1.3.4.1.7.3 1 .6l5 5.3a3.1 3.1 0 0 1 .8 2.1zm16.8 134.5v.8l-.1.3-.3.1h-8.8l-.3-.1-.1-.3v-.9l.1-.2.3-.2h8.8c.1 0 .2 0 .3.2l.1.2zm-3.1-3.4v1.1l-.3.2h-6l-.1-.2-.1-.2v-1.2l.3-.1h6l.1.1.1.3zm-8.1 8h12.8v-10h-5.2c-.3 0-.6-.2-.9-.4-.2-.3-.3-.6-.3-1v-5.3h-6.4v16.6zm8-11.7h3.7l-3.7-4v4zm6.4 1.6v10.4c0 .4-.1.7-.3 1l-.9.3h-13.6c-.3 0-.6-.1-.8-.4-.3-.2-.4-.5-.4-.9v-17.4c0-.4.1-.7.4-1 .2-.2.5-.3.8-.3h6.8c.3 0 .7 0 1.1.3.4.1.7.3 1 .6l5 5.3a3.1 3.1 0 0 1 .8 2.1zm15.8 125.5v.8l-.1.3-.3.1h-8.8l-.3-.1-.1-.3v-.9l.1-.2.3-.2h8.8c.1 0 .2 0 .3.2l.1.3zm-3.1-3.4v1.1l-.3.2h-6l-.1-.2-.1-.3v-1.1l.3-.1h6l.1.1.1.3zm-8.1 8h12.8v-10h-5.2c-.3 0-.6-.2-.8-.4-.3-.3-.4-.6-.4-1v-5.3h-6.4v16.6zm8-11.7h3.7l-3.7-4v4zm6.4 1.6v10.4c0 .4-.1.7-.3 1l-.9.3h-13.6c-.3 0-.6-.1-.8-.4-.3-.2-.4-.5-.4-.9v-17.5c0-.3.1-.6.4-.8.2-.3.5-.4.8-.4h6.8c.3 0 .7 0 1.1.3.4.1.7.3 1 .6l5 5.3a3.1 3.1 0 0 1 .8 2.1zm16.8 125.5v.8l-.1.3-.3.1h-8.8l-.3-.1-.1-.3v-.9l.1-.2.3-.2h8.8c.1 0 .2 0 .3.2l.1.3zm-3.1-3.4v1.1l-.3.2h-6l-.1-.2-.1-.3v-1.1l.3-.1h6l.1.1.1.3zm-8.1 8h12.8v-10h-5.2c-.3 0-.6-.2-.8-.4-.3-.3-.4-.6-.4-1v-5.3h-6.4v16.6zm8-11.7h3.7l-3.7-4v4zm6.4 1.6v10.4c0 .4-.1.7-.3 1l-.9.3h-13.6c-.3 0-.6-.1-.8-.4-.3-.2-.4-.5-.4-.9v-17.5c0-.3.1-.6.4-.8.2-.3.5-.4.8-.4h6.8c.3 0 .7 0 1.1.3.4.1.7.3 1 .6l5 5.3a3.1 3.1 0 0 1 .8 2.1zm-2.2 77.5v.8l-.1.3-.3.1h-8.8l-.3-.1-.1-.3v-.9l.1-.2.3-.2h8.8c.1 0 .2 0 .3.2l.1.2zm-3.1-3.4v1.1l-.3.2h-6l-.1-.2-.1-.2v-1.2l.3-.1h6l.1.1.1.3zm-8.1 8h12.8v-10h-5.2c-.3 0-.6-.2-.8-.4-.3-.3-.4-.6-.4-1v-5.3h-6.4v16.6zm8-11.7h3.7l-3.7-4v4zm6.4 1.6v10.5a1.1 1.1 0 0 1-1.2 1.3l-13.6-.1c-.3 0-.6-.1-.8-.4-.3-.2-.4-.5-.4-.9v-17.5c0-.3.1-.6.4-.8.2-.3.5-.4.8-.4h6.8c.3 0 .7 0 1.1.3.4.1.7.3 1 .6l5 5.3a3.1 3.1 0 0 1 .8 2.1zm-23.2 35.5v.8l-.1.3-.3.1h-8.8l-.3-.1-.1-.3v-.9l.1-.2.3-.2h8.8c.1 0 .2 0 .3.2l.1.2zm-3.1-3.4v1.1l-.3.2h-6l-.1-.2-.1-.2v-1.2l.3-.1h6l.1.1.1.3zm-8.1 8h12.8v-10h-5.2c-.3 0-.6-.2-.8-.4-.3-.3-.4-.6-.4-1v-5.3h-6.4v16.6zm8-11.7h3.7l-3.7-4v4zm6.4 1.6v10.5a1.1 1.1 0 0 1-1.2 1.3l-13.6-.1c-.3 0-.6-.1-.8-.4-.3-.2-.4-.5-.4-.9v-17.5c0-.3.1-.6.4-.8.2-.3.5-.4.8-.4h6.8c.3 0 .7 0 1.1.3.4.1.7.3 1 .6l5 5.3a3.1 3.1 0 0 1 .8 2.1zm-23.2 34.5v.8l-.1.3-.3.1h-8.8l-.3-.1-.1-.3v-.9l.1-.2.3-.2h8.8c.1 0 .2 0 .3.2l.1.2zm-3.1-3.4v1.1l-.3.2h-6l-.1-.2-.1-.2v-1.2l.3-.1h6l.1.1.1.3zm-8.1 8h12.8v-10h-5.2c-.3 0-.6-.2-.9-.4-.2-.3-.3-.6-.3-1v-5.3h-6.4v16.6zm8-11.7h3.7l-3.7-4v4zm6.4 1.6v10.5a1.1 1.1 0 0 1-1.2 1.3l-13.6-.1c-.3 0-.6-.1-.8-.4-.3-.2-.4-.5-.4-.9v-17.5c0-.3.1-.6.4-.8.2-.3.5-.4.8-.4h6.8c.3 0 .7 0 1.1.3.4.1.7.3 1 .6l5 5.3a3.1 3.1 0 0 1 .8 2.1zm-23.2-444.5v.8l-.1.3-.3.1h-8.8l-.3-.1-.1-.3v-.9l.1-.2.3-.2h8.8c.1 0 .2 0 .3.2l.1.2zm-3.1-3.4v1.1l-.3.2h-6l-.1-.2-.1-.2v-1.2l.3-.1h6l.1.1.1.3zm-8.1 8h12.8v-10h-5.2c-.3 0-.6-.2-.9-.4-.2-.3-.3-.6-.3-1v-5.3h-6.4v16.6zm8-11.7h3.7l-3.7-4v4zm6.4 1.6v10.5a1.1 1.1 0 0 1-1.2 1.3l-13.6-.1c-.3 0-.6-.1-.8-.4-.3-.2-.4-.5-.4-.9v-17.4c0-.4.1-.7.4-1 .2-.2.5-.3.8-.3h6.8c.3 0 .7 0 1.1.3.4.1.7.3 1 .6l5 5.3a3.1 3.1 0 0 1 .8 2.1z"/><path fill="#B3B3B3" fill-rule="nonzero" d="M104.8 613.8v.8l-.1.3-.3.1h-8.8l-.3-.1-.1-.3v-.9l.1-.2.3-.2h8.8c.1 0 .2 0 .3.2l.1.2zm-3.1-3.4v1.1l-.3.2h-6l-.1-.2-.1-.2v-1.2l.3-.1h6l.1.1.1.3zm-8.1 8h12.8v-10h-5.2c-.3 0-.6-.2-.9-.4-.2-.3-.3-.6-.3-1v-5.3h-6.4v16.6zm8-11.7h3.7l-3.7-4v4zm6.4 1.6v10.5a1.1 1.1 0 0 1-1.2 1.3l-13.6-.1c-.3 0-.6-.1-.8-.4-.3-.2-.4-.5-.4-.9v-17.5c0-.3.1-.6.4-.8.2-.3.5-.4.8-.4h6.8c.3 0 .7 0 1.1.3.4.1.7.3 1 .6l5 5.3a3.1 3.1 0 0 1 .8 2.1z"/><g fill-rule="nonzero"><path fill="#FFF" d="m13 625 11 6.2v12.6L13 650l-11-6.2v-12.6z"/><path fill="#8ED6FB" d="m22.4 644-8.5 5v-4l5.3-3 3.2 2zm.6-.6v-10.5l-3.1 1.8v6.8l3.1 1.9zm-18.4.6 8.5 5v-4l-5.3-3-3.2 2zm-.6-.6v-10.5l3.1 1.8v6.8L4 643.4zm.4-11.2L13 627v3.8L7.5 634l-3.1-1.8zm18.2 0L14 627v3.8l5.6 3.2 3.1-1.8z"/><path fill="#1C78C0" d="M13.6 644 8 641v-6.2l5.6 3.2v6zm.8 0 5.6-3v-6.2l-5.6 3.2v6zm-6-9.9L14 631l5.6 3.1-5.6 3.2-5.6-3.2z"/><path fill="#1A1C1C" d="M35.8 641.3H38l2.5-7.4h-2.3l-1.5 5.3-1.5-5.3h-2l-1.6 5.3-1.4-5.3H28l2.4 7.4h2.4l1.5-4.8 1.5 4.8zm4.9-3.7c0 2.3 1.6 4 4.2 4 2 0 3.1-1.2 3.4-1.7l-1.4-1c-.2.3-.8.9-2 .9-1.1 0-2-.7-2-1.7h5.7v-.4c0-2.5-1.5-4-4-4-2.3 0-4 1.7-4 4zm2.2-.8c.1-.9.8-1.5 1.8-1.5s1.7.6 1.7 1.5h-3.5zm6.5 4.5h2v-.7c.2.2 1 1 2.4 1 2.3 0 4-1.7 4-4s-1.6-4-4-4c-1.3 0-2.1.8-2.3 1V631h-2.1v10.3zm2-3.7c0-1.4 1-2.2 2.1-2.2 1.2 0 2 1 2 2.2 0 1.3-.8 2.2-2 2.2-1.3 0-2-1-2-2.2zm7.2 6.4h2v-3.4c.3.2 1 1 2.5 1 2.3 0 3.8-1.7 3.8-4s-1.6-4-4-4c-1.3 0-2.1.8-2.3 1v-.7h-2V644zm2-6.4c0-1.2.8-2.2 2-2.2 1.3 0 2.2.8 2.2 2.2 0 1.3-.9 2.2-2.1 2.2-1.2 0-2-.8-2-2.2zm6.7 1.4c0 1.6 1.4 2.5 3 2.5 1 0 1.6-.2 2-.7l.1.5h1.9v-4.7c0-1.7-.8-3-3.4-3-1.2 0-2.4.5-3.1 1l.8 1.3a5 5 0 0 1 2.1-.5c1 0 1.5.4 1.5 1v.6c-.3-.2-1-.5-1.8-.5-1.9 0-3.1 1-3.1 2.5zm2.1 0c0-.7.6-1 1.4-1 .8 0 1.4.3 1.4 1 0 .6-.6 1-1.4 1-.8 0-1.4-.4-1.4-1zm10 .8c-1.3 0-2.2-1-2.2-2.2 0-1.2.8-2.2 2.2-2.2 1 0 1.5.4 1.9.7l.6-1.6c-.5-.4-1.4-.8-2.6-.8-2.4 0-4.3 1.6-4.3 4 0 2.2 1.8 3.8 4.4 3.8 1.1 0 2-.4 2.5-.8l-.6-1.6a3 3 0 0 1-1.8.7zm3.3 1.5h2.1v-3.8l2.7 3.8H90l-3-4 2.8-3.4h-2.4l-2.6 3.1v-6h-2.1v10.3z"/></g><text fill="#000" font-family="CourierNewPSMT, Courier New" font-size="9" transform="translate(1 1)"><tspan x="141" y="352">@import "baz/functions";</tspan>  <tspan x="141" y="372">@mixin cool-background-image {</tspan>  <tspan x="141" y="392">}</tspan></text><text fill="#000" font-family="CourierNewPSMT, Courier New" font-size="9" transform="translate(1 1)"><tspan x="155" y="382">background-image: get-url("cool");</tspan></text></g></symbol><symbol fill="none" viewBox="0 0 18 18" id="public--icons--Blog" xmlns="http://www.w3.org/2000/svg"><g clip-path="url(#pa)"><path d="M15.75 1.5C4.5 1.5 3 12 2.25 16.5h1.498c.5-2.5 1.75-3.874 3.752-4.125 3-.375 5.25-3 6-5.25l-1.125-.75.75-.75c.75-.75 1.503-1.875 2.625-4.125Z" fill="#2B2B2B"/></g><defs><clipPath id="pa"><path fill="#fff" d="M0 0h18v18H0z"/></clipPath></defs></symbol><symbol fill="none" viewBox="0 0 24 24" id="public--icons--Check" xmlns="http://www.w3.org/2000/svg"><g clip-path="url(#ua)"><path d="m10 15.172 9.192-9.193 1.415 1.414L10 18l-6.364-6.364 1.414-1.414 4.95 4.95Z" fill="#1B1B1B"/></g><defs><clipPath id="ua"><path fill="#fff" d="M0 0h24v24H0z"/></clipPath></defs></symbol><symbol fill="none" viewBox="0 0 24 24" id="public--icons--Close" xmlns="http://www.w3.org/2000/svg"><g clip-path="url(#la)"><path d="m12 10.586 4.95-4.95 1.414 1.414-4.95 4.95 4.95 4.95-1.414 1.414-4.95-4.95-4.95 4.95-1.414-1.414 4.95-4.95-4.95-4.95L7.05 5.636l4.95 4.95Z" fill="#1B1B1B"/></g><defs><clipPath id="la"><path fill="#fff" d="M0 0h24v24H0z"/></clipPath></defs></symbol><symbol fill="none" viewBox="0 0 18 18" id="public--icons--Contact" xmlns="http://www.w3.org/2000/svg"><g clip-path="url(#ba)"><path d="M4.841 14.25 1.5 16.875V3a.75.75 0 0 1 .75-.75h13.5a.75.75 0 0 1 .75.75v10.5a.75.75 0 0 1-.75.75H4.841Z" fill="#2B2B2B"/></g><defs><clipPath id="ba"><path fill="#fff" d="M0 0h18v18H0z"/></clipPath></defs></symbol><symbol fill="none" viewBox="0 0 30 30" id="public--icons--Contrast" xmlns="http://www.w3.org/2000/svg"><g clip-path="url(#ea)"><path d="M15.5 27C8.596 27 3 21.404 3 14.5S8.596 2 15.5 2 28 7.596 28 14.5 22.404 27 15.5 27Zm-8.339-6.969A10 10 0 1 0 21.031 6.16a11.247 11.247 0 0 1-2.88 10.991 11.246 11.246 0 0 1-10.99 2.88Z" fill="#2B2B2B"/></g><defs><clipPath id="ea"><path fill="#fff" d="M0 0h30v30H0z"/></clipPath></defs></symbol><symbol fill="none" viewBox="0 0 24 24" id="public--icons--Copyright" xmlns="http://www.w3.org/2000/svg"><g clip-path="url(#ia)"><path d="M12 2c5.52 0 10 4.48 10 10s-4.48 10-10 10S2 17.52 2 12 6.48 2 12 2Zm0 2c-4.42 0-8 3.58-8 8s3.58 8 8 8 8-3.58 8-8-3.58-8-8-8Zm0 3c1.82 0 3.413.973 4.288 2.428l-1.714 1.029a3 3 0 1 0-.001 3.087l1.715 1.028A4.999 4.999 0 0 1 7 12c0-2.76 2.24-5 5-5Z" fill="#1B1B1B"/></g><defs><clipPath id="ia"><path fill="#fff" d="M0 0h24v24H0z"/></clipPath></defs></symbol><symbol fill="none" viewBox="0 0 18 18" id="public--icons--Home" xmlns="http://www.w3.org/2000/svg"><g clip-path="url(#oa)"><path d="M15 15a.75.75 0 0 1-.75.75H3.75A.75.75 0 0 1 3 15V8.25H.75l7.745-7.041a.75.75 0 0 1 1.01 0l7.745 7.04H15V15Z" fill="#2B2B2B"/></g><defs><clipPath id="oa"><path fill="#fff" d="M0 0h18v18H0z"/></clipPath></defs></symbol><symbol fill="none" viewBox="0 0 15 15" id="public--icons--Icons" xmlns="http://www.w3.org/2000/svg"><g stroke="#2B2B2B"><path d="M.5.5h9v9h-9z"/><path d="M5.5 5.5h9v9h-9z"/></g></symbol><symbol fill="none" viewBox="0 0 14 14" id="public--icons--Icons-Youtube" xmlns="http://www.w3.org/2000/svg"><g clip-path="url(#ha)"><path d="M12.567 3.79c.266 1.04.266 3.21.266 3.21s0 2.17-.266 3.21a1.64 1.64 0 0 1-1.13 1.18c-.998.277-4.437.277-4.437.277s-3.438 0-4.436-.278a1.64 1.64 0 0 1-1.13-1.18C1.166 9.17 1.166 7 1.166 7s0-2.17.266-3.21a1.64 1.64 0 0 1 1.13-1.179C3.564 2.333 7 2.333 7 2.333s3.44 0 4.436.278a1.64 1.64 0 0 1 1.13 1.18ZM5.833 9.043 9.333 7l-3.5-2.042v4.084Z" fill="#1B1B1B"/></g><defs><clipPath id="ha"><path fill="#fff" d="M0 0h14v14H0z"/></clipPath></defs></symbol><symbol fill="none" viewBox="0 0 14 14" id="public--icons--Icons-dribbble" xmlns="http://www.w3.org/2000/svg"><g clip-path="url(#qa)"><path d="M11.66 6.75a4.644 4.644 0 0 0-.917-2.538c-.168.18-.347.35-.537.508a7.675 7.675 0 0 1-1.933 1.172c.098.204.187.402.266.589v.001l.064.158c.883-.1 1.814-.063 2.717.059.12.016.233.034.34.051ZM6.186 2.404a26.93 26.93 0 0 1 1.57 2.491 6.478 6.478 0 0 0 1.778-1.03c.165-.136.32-.284.464-.441a4.648 4.648 0 0 0-3.812-1.02ZM2.48 5.831c.397-.01.794-.034 1.19-.071a18.392 18.392 0 0 0 2.836-.48 31.717 31.717 0 0 0-1.575-2.466 4.677 4.677 0 0 0-2.451 3.017Zm.892 4.106c.227-.33.524-.703.92-1.108C5.14 7.96 6.14 7.283 7.3 6.91l.036-.01a13.971 13.971 0 0 0-.278-.58c-1.07.311-2.199.506-3.323.607-.548.05-1.04.071-1.402.075a4.647 4.647 0 0 0 1.041 2.935Zm5.38 1.388a20.968 20.968 0 0 0-.952-3.33c-1.168.424-2.098 1.044-2.818 1.784-.29.293-.547.617-.768.965.804.6 1.781.924 2.785.922.6.001 1.196-.114 1.753-.34Zm1.093-.627a4.666 4.666 0 0 0 1.742-2.84c-.198-.05-.45-.1-.726-.138a7.014 7.014 0 0 0-1.855-.02c.347.98.627 1.981.839 2.999ZM7 12.833A5.833 5.833 0 1 1 7 1.167a5.833 5.833 0 0 1 0 11.666Z" fill="#2B2B2B"/></g><defs><clipPath id="qa"><path fill="#fff" d="M0 0h14v14H0z"/></clipPath></defs></symbol><symbol fill="none" viewBox="0 0 14 14" id="public--icons--Icons-facebook" xmlns="http://www.w3.org/2000/svg"><g clip-path="url(#da)"><path d="M8.167 7.875h1.458l.583-2.333H8.167V4.375c0-.601 0-1.167 1.166-1.167h.875v-1.96c-.19-.025-.908-.081-1.666-.081-1.584 0-2.709.966-2.709 2.741v1.634h-1.75v2.333h1.75v4.958h2.334V7.875Z" fill="#1B1B1B"/></g><defs><clipPath id="da"><path fill="#fff" d="M0 0h14v14H0z"/></clipPath></defs></symbol><symbol fill="none" viewBox="0 0 14 14" id="public--icons--Icons-instagram" xmlns="http://www.w3.org/2000/svg"><g clip-path="url(#ra)"><path d="M7 1.167c1.585 0 1.783.005 2.405.034.62.03 1.044.127 1.416.272.385.148.71.349 1.034.672.296.292.526.645.672 1.034.144.372.242.795.271 1.416.028.622.035.82.035 2.405s-.005 1.783-.035 2.404c-.029.622-.127 1.044-.27 1.417-.147.39-.377.742-.674 1.033a2.865 2.865 0 0 1-1.033.673c-.372.144-.795.242-1.416.271-.622.028-.82.035-2.405.035s-1.783-.006-2.404-.035c-.622-.029-1.045-.127-1.417-.271a2.852 2.852 0 0 1-1.033-.673 2.86 2.86 0 0 1-.673-1.033c-.145-.372-.242-.795-.271-1.417-.028-.621-.035-.82-.035-2.404 0-1.585.006-1.783.035-2.405.029-.621.126-1.044.27-1.416.147-.39.376-.742.674-1.034a2.857 2.857 0 0 1 1.033-.672c.372-.145.795-.242 1.417-.272.621-.027.82-.034 2.404-.034Zm0 2.916a2.917 2.917 0 1 0 0 5.834 2.917 2.917 0 0 0 0-5.834Zm3.792-.146a.729.729 0 1 0-1.458 0 .729.729 0 0 0 1.458 0ZM7 5.25a1.75 1.75 0 1 1 0 3.5 1.75 1.75 0 0 1 0-3.5Z" fill="#1B1B1B"/></g><defs><clipPath id="ra"><path fill="#fff" d="M0 0h14v14H0z"/></clipPath></defs></symbol><symbol fill="none" viewBox="0 0 14 14" id="public--icons--Icons-twitter" xmlns="http://www.w3.org/2000/svg"><g clip-path="url(#ka)"><path d="M12.928 3.3a4.89 4.89 0 0 1-1.401.383c.51-.304.89-.784 1.073-1.35a4.875 4.875 0 0 1-1.55.593A2.44 2.44 0 0 0 6.895 5.15a6.927 6.927 0 0 1-5.029-2.549 2.44 2.44 0 0 0 .755 3.257 2.432 2.432 0 0 1-1.105-.304v.03a2.441 2.441 0 0 0 1.958 2.392c-.36.098-.737.112-1.103.042a2.441 2.441 0 0 0 2.28 1.695 4.898 4.898 0 0 1-3.612 1.01 6.901 6.901 0 0 0 3.739 1.097c4.487 0 6.942-3.718 6.942-6.942 0-.105-.003-.211-.008-.315.478-.345.89-.773 1.217-1.263Z" fill="#1B1B1B"/></g><defs><clipPath id="ka"><path fill="#fff" d="M0 0h14v14H0z"/></clipPath></defs></symbol><symbol fill="none" viewBox="0 0 18 18" id="public--icons--Mobile" xmlns="http://www.w3.org/2000/svg"><g clip-path="url(#na)"><path d="M4.5 1.5h9a.75.75 0 0 1 .75.75v13.5a.75.75 0 0 1-.75.75h-9a.75.75 0 0 1-.75-.75V2.25a.75.75 0 0 1 .75-.75ZM9 12.75a.75.75 0 1 0 0 1.5.75.75 0 0 0 0-1.5Z" fill="#2B2B2B"/></g><defs><clipPath id="na"><path fill="#fff" d="M0 0h18v18H0z"/></clipPath></defs></symbol><symbol fill="none" viewBox="0 0 18 18" id="public--icons--Portfolio" xmlns="http://www.w3.org/2000/svg"><g clip-path="url(#ta)"><path d="M6.75 9.75V12h4.5V9.75h5.25V15a.75.75 0 0 1-.75.75H2.25A.75.75 0 0 1 1.5 15V9.75h5.25Zm1.5-1.5h1.5v2.25h-1.5V8.25Zm-3-4.5V1.5A.75.75 0 0 1 6 .75h6a.75.75 0 0 1 .75.75v2.25h3a.75.75 0 0 1 .75.75v3.75h-5.25v-1.5h-4.5v1.5H1.5V4.5a.75.75 0 0 1 .75-.75h3Zm1.5-1.5v1.5h4.5v-1.5h-4.5Z" fill="#2B2B2B"/></g><defs><clipPath id="ta"><path fill="#fff" d="M0 0h18v18H0z"/></clipPath></defs></symbol><symbol fill="none" viewBox="0 0 18 18" id="public--icons--Star" xmlns="http://www.w3.org/2000/svg"><path d="m9 13.245 3.91-1.01 1.635 5.133L9 13.245Zm9-6.636h-6.884L9 0 6.884 6.609H0l5.571 4.096-2.116 6.609 5.572-4.097 3.428-2.512L18 6.61Z" fill="#1B1B1B"/></symbol><symbol fill="none" viewBox="0 0 18 18" id="public--icons--cv" xmlns="http://www.w3.org/2000/svg"><g clip-path="url(#sa)"><path d="M12.764 11.272 9.25 14.626l-3.514-3.354C3.103 11.381 1 13.438 1 15.976v.337c0 .932.792 1.688 1.768 1.688h12.964c.976 0 1.768-.756 1.768-1.688v-.337c0-2.538-2.103-4.595-4.736-4.704ZM1.5 2.806l.236.053v2.053c-.258.148-.442.405-.442.714 0 .295.17.541.408.692l-.574 2.19c-.063.243.077.493.28.493h1.54c.202 0 .342-.25.28-.492l-.575-2.19c.24-.152.409-.398.409-.693 0-.31-.185-.566-.442-.714V3.063l2.43.559a4.303 4.303 0 0 0-.515 2.004c0 2.485 2.11 4.5 4.714 4.5 2.604 0 4.714-2.015 4.714-4.5 0-.724-.195-1.4-.515-2.004l3.546-.816c.67-.154.67-.952 0-1.107L9.983.082a3.31 3.31 0 0 0-1.462 0L1.5 1.695c-.667.155-.667.957 0 1.111Z" fill="#000"/></g><defs><clipPath id="sa"><path fill="#fff" d="M0 0h18v18H0z"/></clipPath></defs></symbol><symbol fill="none" viewBox="0 0 17 18" id="public--icons--file-code" xmlns="http://www.w3.org/2000/svg"><g clip-path="url(#ga)"><path d="M16.5 4.287V4.5H11V0h.26c.274 0 .536.089.73.247l4.208 3.443a.775.775 0 0 1 .302.597Zm-5.844 1.338c-.567 0-1.031-.38-1.031-.844V0H1.031C.461 0 0 .378 0 .844v16.312c0 .466.462.844 1.031.844H15.47c.57 0 1.031-.378 1.031-.844V5.625h-5.844ZM5.294 14.08a.239.239 0 0 1-.074.043.275.275 0 0 1-.254-.034L2.179 11.95a.196.196 0 0 1-.054-.063.161.161 0 0 1 0-.151.195.195 0 0 1 .054-.063l2.787-2.138a.245.245 0 0 1 .077-.04.279.279 0 0 1 .177.006c.028.01.053.025.074.043l.841.734a.19.19 0 0 1 .049.064.159.159 0 0 1-.009.148.2.2 0 0 1-.056.06l-1.751 1.261 1.751 1.262a.2.2 0 0 1 .056.06.159.159 0 0 1 .009.148.19.19 0 0 1-.049.064l-.841.734Zm2.204 1.775-1.18-.28a.229.229 0 0 1-.138-.091.16.16 0 0 1-.02-.145L8.8 7.9a.203.203 0 0 1 .111-.113.278.278 0 0 1 .177-.016l1.18.28c.029.007.056.019.08.034a.204.204 0 0 1 .058.057.159.159 0 0 1 .02.144l-2.64 7.44a.181.181 0 0 1-.042.066.228.228 0 0 1-.07.048.267.267 0 0 1-.176.016Zm6.91-3.904-2.788 2.138a.243.243 0 0 1-.077.04.282.282 0 0 1-.177-.006.24.24 0 0 1-.074-.043l-.841-.734a.188.188 0 0 1-.049-.064.159.159 0 0 1 .009-.148.2.2 0 0 1 .056-.06l1.751-1.261-1.751-1.262a.2.2 0 0 1-.056-.06.163.163 0 0 1-.009-.148.19.19 0 0 1 .049-.064l.841-.734a.236.236 0 0 1 .074-.043.276.276 0 0 1 .254.034l2.787 2.138c.023.018.042.04.054.063a.16.16 0 0 1 0 .151.195.195 0 0 1-.054.063Z" fill="#1B1B1B"/></g><defs><clipPath id="ga"><path fill="#fff" d="M0 0h16.5v18H0z"/></clipPath></defs></symbol><symbol fill="none" viewBox="0 0 18 18" id="public--icons--location" xmlns="http://www.w3.org/2000/svg"><g clip-path="url(#ma)"><path d="M1.5 3.75 6.75 1.5l4.5 2.25 4.727-2.026a.375.375 0 0 1 .523.345V14.25l-5.25 2.25-4.5-2.25-4.727 2.026a.376.376 0 0 1-.523-.345V3.75Zm9.75 11.073V5.382l-.049.021L6.75 3.177v9.441l.049-.021 4.451 2.226Z" fill="#2B2B2B"/></g><defs><clipPath id="ma"><path fill="#fff" d="M0 0h18v18H0z"/></clipPath></defs></symbol><symbol fill="none" viewBox="0 0 18 18" id="public--icons--mail" xmlns="http://www.w3.org/2000/svg"><g clip-path="url(#ca)"><path d="M2.25 2.25h13.5a.75.75 0 0 1 .75.75v12a.75.75 0 0 1-.75.75H2.25A.75.75 0 0 1 1.5 15V3a.75.75 0 0 1 .75-.75Zm6.795 6.512L4.236 4.678l-.971 1.144 5.79 4.916 5.686-4.92-.982-1.135-4.713 4.08h-.001Z" fill="#2B2B2B"/></g><defs><clipPath id="ca"><path fill="#fff" d="M0 0h18v18H0z"/></clipPath></defs></symbol><symbol viewBox="0 0 841.9 595.3" id="src--logo" xmlns="http://www.w3.org/2000/svg"><g fill="#61DAFB"><path d="M666.3 296.5c0-32.5-40.7-63.3-103.1-82.4 14.4-63.6 8-114.2-20.2-130.4-6.5-3.8-14.1-5.6-22.4-5.6v22.3c4.6 0 8.3.9 11.4 2.6 13.6 7.8 19.5 37.5 14.9 75.7-1.1 9.4-2.9 19.3-5.1 29.4-19.6-4.8-41-8.5-63.5-10.9-13.5-18.5-27.5-35.3-41.6-50 32.6-30.3 63.2-46.9 84-46.9V78c-27.5 0-63.5 19.6-99.9 53.6-36.4-33.8-72.4-53.2-99.9-53.2v22.3c20.7 0 51.4 16.5 84 46.6-14 14.7-28 31.4-41.3 49.9-22.6 2.4-44 6.1-63.6 11-2.3-10-4-19.7-5.2-29-4.7-38.2 1.1-67.9 14.6-75.8 3-1.8 6.9-2.6 11.5-2.6V78.5c-8.4 0-16 1.8-22.6 5.6-28.1 16.2-34.4 66.7-19.9 130.1-62.2 19.2-102.7 49.9-102.7 82.3 0 32.5 40.7 63.3 103.1 82.4-14.4 63.6-8 114.2 20.2 130.4 6.5 3.8 14.1 5.6 22.5 5.6 27.5 0 63.5-19.6 99.9-53.6 36.4 33.8 72.4 53.2 99.9 53.2 8.4 0 16-1.8 22.6-5.6 28.1-16.2 34.4-66.7 19.9-130.1 62-19.1 102.5-49.9 102.5-82.3zm-130.2-66.7c-3.7 12.9-8.3 26.2-13.5 39.5-4.1-8-8.4-16-13.1-24-4.6-8-9.5-15.8-14.4-23.4 14.2 2.1 27.9 4.7 41 7.9zm-45.8 106.5c-7.8 13.5-15.8 26.3-24.1 38.2-14.9 1.3-30 2-45.2 2-15.1 0-30.2-.7-45-1.9-8.3-11.9-16.4-24.6-24.2-38-7.6-13.1-14.5-26.4-20.8-39.8 6.2-13.4 13.2-26.8 20.7-39.9 7.8-13.5 15.8-26.3 24.1-38.2 14.9-1.3 30-2 45.2-2 15.1 0 30.2.7 45 1.9 8.3 11.9 16.4 24.6 24.2 38 7.6 13.1 14.5 26.4 20.8 39.8-6.3 13.4-13.2 26.8-20.7 39.9zm32.3-13c5.4 13.4 10 26.8 13.8 39.8-13.1 3.2-26.9 5.9-41.2 8 4.9-7.7 9.8-15.6 14.4-23.7 4.6-8 8.9-16.1 13-24.1zM421.2 430c-9.3-9.6-18.6-20.3-27.8-32 9 .4 18.2.7 27.5.7 9.4 0 18.7-.2 27.8-.7-9 11.7-18.3 22.4-27.5 32zm-74.4-58.9c-14.2-2.1-27.9-4.7-41-7.9 3.7-12.9 8.3-26.2 13.5-39.5 4.1 8 8.4 16 13.1 24 4.7 8 9.5 15.8 14.4 23.4zM420.7 163c9.3 9.6 18.6 20.3 27.8 32-9-.4-18.2-.7-27.5-.7-9.4 0-18.7.2-27.8.7 9-11.7 18.3-22.4 27.5-32zm-74 58.9c-4.9 7.7-9.8 15.6-14.4 23.7-4.6 8-8.9 16-13 24-5.4-13.4-10-26.8-13.8-39.8 13.1-3.1 26.9-5.8 41.2-7.9zm-90.5 125.2c-35.4-15.1-58.3-34.9-58.3-50.6 0-15.7 22.9-35.6 58.3-50.6 8.6-3.7 18-7 27.7-10.1 5.7 19.6 13.2 40 22.5 60.9-9.2 20.8-16.6 41.1-22.2 60.6-9.9-3.1-19.3-6.5-28-10.2zM310 490c-13.6-7.8-19.5-37.5-14.9-75.7 1.1-9.4 2.9-19.3 5.1-29.4 19.6 4.8 41 8.5 63.5 10.9 13.5 18.5 27.5 35.3 41.6 50-32.6 30.3-63.2 46.9-84 46.9-4.5-.1-8.3-1-11.3-2.7zm237.2-76.2c4.7 38.2-1.1 67.9-14.6 75.8-3 1.8-6.9 2.6-11.5 2.6-20.7 0-51.4-16.5-84-46.6 14-14.7 28-31.4 41.3-49.9 22.6-2.4 44-6.1 63.6-11 2.3 10.1 4.1 19.8 5.2 29.1zm38.5-66.7c-8.6 3.7-18 7-27.7 10.1-5.7-19.6-13.2-40-22.5-60.9 9.2-20.8 16.6-41.1 22.2-60.6 9.9 3.1 19.3 6.5 28.1 10.2 35.4 15.1 58.3 34.9 58.3 50.6-.1 15.7-23 35.6-58.4 50.6zM320.8 78.4z"/><circle cx="420.9" cy="296.5" r="45.7"/><path d="M520.5 78.1z"/></g></symbol></svg>