<svg width="74" height="67" viewBox="0 0 74 67" fill="none" xmlns="http://www.w3.org/2000/svg">
<g id="Group">
<g id="Group_2">
<g id="Group_3">
<g id="Group_4">
<g id="Group_5">
<path id="Vector" d="M47.7894 6.54447C48.3873 6.54447 48.8719 6.0598 48.8719 5.46193C48.8719 4.86406 48.3873 4.37939 47.7894 4.37939C47.1915 4.37939 46.7068 4.86406 46.7068 5.46193C46.7068 6.0598 47.1915 6.54447 47.7894 6.54447Z" fill="#FFB400"/>
<path id="Vector_2" d="M52.4415 6.54447C53.0394 6.54447 53.5241 6.0598 53.5241 5.46193C53.5241 4.86406 53.0394 4.37939 52.4415 4.37939C51.8437 4.37939 51.359 4.86406 51.359 5.46193C51.359 6.0598 51.8437 6.54447 52.4415 6.54447Z" fill="#FFB400"/>
</g>
</g>
</g>
<g id="Group_6">
<path id="Vector_3" d="M20.4759 6.5459H39.957C40.5556 6.5459 41.0409 6.06056 41.0409 5.46191C41.0409 4.86327 40.5556 4.37793 39.957 4.37793H20.4759C19.8772 4.37793 19.3919 4.86327 19.3919 5.46191C19.3919 6.06056 19.8772 6.5459 20.4759 6.5459Z" fill="#FFB400"/>
<path id="Vector_4" d="M71.1202 55.601H69.2177V48.4999C69.2177 47.9013 68.7324 47.4159 68.1338 47.4159C67.5351 47.4159 67.0498 47.9013 67.0498 48.4999V55.601C62.404 55.601 9.81729 55.601 6.95036 55.601V18.9942C6.95036 17.5199 8.14968 16.3205 9.62405 16.3205H14.7685V19.2407H11.9462C10.8017 19.2407 9.87062 20.1719 9.87062 21.3165V50.605C9.87062 51.7496 10.8017 52.6808 11.9462 52.6808H62.0536C63.1982 52.6808 64.1292 51.7496 64.1292 50.605V21.3165C64.1292 20.1719 63.1982 19.2407 62.0536 19.2407H59.2315V16.3205H64.376C65.8502 16.3205 67.0496 17.5198 67.0496 18.9942V43.4292C67.0496 44.0278 67.535 44.5132 68.1336 44.5132C68.7323 44.5132 69.2176 44.0278 69.2176 43.4292V18.9942C69.2176 16.3245 67.0457 14.1525 64.376 14.1525H59.2315V2.22289C59.2315 0.997266 58.2344 0 57.0086 0H16.9914C15.7656 0 14.7685 0.997121 14.7685 2.22289V14.1525H9.6239C6.95427 14.1525 4.78225 16.3244 4.78225 18.9942V55.6012H2.87979C1.29182 55.601 0 56.893 0 58.481C0 62.8824 3.58091 66.4633 7.98232 66.4633H66.0177C70.4191 66.4633 74 62.8824 74 58.481C74 56.8928 72.7082 55.601 71.1202 55.601V55.601ZM12.0386 21.4087H14.7683V50.5128H12.0386V21.4087ZM61.9614 21.4087V50.5128H59.2317V21.4087H61.9614ZM16.9914 2.16811H57.0088C57.039 2.16811 57.0637 2.19268 57.0637 2.22303V8.75585H25.4164C24.8178 8.75585 24.3324 9.24118 24.3324 9.83983C24.3324 10.4385 24.8178 10.9238 25.4164 10.9238H57.0637V50.5129H16.9363V10.9237H20.3487C20.9473 10.9237 21.4327 10.4383 21.4327 9.83969C21.4327 9.24104 20.9473 8.7557 20.3487 8.7557H16.9363V2.22289C16.9363 2.19268 16.961 2.16811 16.9914 2.16811V2.16811ZM26.5504 57.769H47.4496V58.8585C47.4496 59.4593 46.9608 59.9481 46.36 59.9481H27.64C27.0392 59.9481 26.5504 59.4593 26.5504 58.8585V57.769ZM66.0177 64.2952H7.98232C4.77632 64.2952 2.16797 61.6868 2.16797 58.4808C2.16797 58.0884 2.48724 57.769 2.87979 57.769H24.3824V58.8585C24.3824 60.6547 25.8438 62.1161 27.64 62.1161H46.36C48.1562 62.1161 49.6176 60.6547 49.6176 58.8585V57.769H71.1202C71.5128 57.769 71.832 58.0883 71.832 58.4808C71.832 61.6869 69.2237 64.2952 66.0177 64.2952Z" fill="#FFB400"/>
<path id="Vector_5" d="M22.5482 31.0429L21.7623 31.2454C20.0179 31.6947 18.9696 33.4703 19.4191 35.2151L19.9618 37.3218C20.3402 38.7906 21.6674 39.7685 23.1188 39.7684C23.7424 39.7684 24.0906 39.6049 24.8462 39.4293C25.3956 40.0695 26.233 40.424 27.1009 40.3407L30.9021 46.1025C31.2972 46.7016 31.9621 47.0471 32.6571 47.0471C33.0878 47.0471 33.2741 46.9396 34.4117 46.6635C35.5369 46.3739 36.213 45.2286 35.9232 44.1033L34.4739 38.4779L36.0206 38.0794C40.1412 37.018 44.4812 38.0339 47.6978 40.7959L47.7113 40.8486C47.9202 41.6594 48.4324 42.3403 49.1535 42.766C49.6426 43.0547 50.188 43.2025 50.7414 43.2025C51.0039 43.2025 51.2681 43.1692 51.5288 43.102C52.3397 42.8932 53.0205 42.3809 53.4462 41.6599C53.8718 40.9388 53.9912 40.0952 53.7822 39.2845L48.0007 16.844C47.7918 16.0332 47.2796 15.3523 46.5586 14.9267C45.8376 14.5012 44.994 14.3818 44.183 14.5906C43.3722 14.7995 42.6913 15.3117 42.2657 16.0328C41.84 16.7538 41.7207 17.5975 41.9297 18.4081L41.9432 18.4609C40.4618 22.4333 37.153 25.4201 33.0326 26.4816L24.5214 28.6745C23.3957 28.9645 22.6281 29.9429 22.5482 31.0429V31.0429ZM23.3908 37.5656C22.8082 37.7158 22.2115 37.3638 22.0612 36.7809L21.5185 34.6742C21.3679 34.0899 21.719 33.4955 22.3033 33.3449L22.9543 33.177L24.0417 37.3979L23.3908 37.5656ZM33.8074 44.5806L32.686 44.8695L29.3416 39.8002L32.3744 39.0189L33.8074 44.5806ZM44.1326 17.1347C44.2638 16.9124 44.4738 16.7544 44.7239 16.6899C44.8045 16.6691 44.8853 16.6593 44.965 16.6593C45.3954 16.6593 45.7889 16.9494 45.9012 17.3848L51.6828 39.8253C51.8157 40.3415 51.504 40.8696 50.9879 41.0026C50.4719 41.1355 49.9436 40.8239 49.8107 40.3076L44.029 17.8671C43.9647 17.6171 44.0014 17.3571 44.1326 17.1347V17.1347ZM42.7794 21.7059L46.8616 37.5506C41.0175 34.1451 35.4519 36.013 35.323 36.0203L33.4168 28.6213C33.5338 28.5649 39.3021 27.5218 42.7794 21.7059V21.7059ZM25.0623 30.7739L31.3173 29.1624L33.2235 36.5614C31.3201 37.0518 28.2819 37.8346 26.9686 38.1729C26.5142 38.2896 26.3995 37.8294 26.3879 37.8149L24.7222 31.35C24.6572 31.0974 24.8098 30.839 25.0623 30.7739V30.7739Z" fill="#FFB400"/>
</g>
</g>
</g>
</svg>
